<mxfile host="app.diagrams.net" agent="Mozilla/5.0 (Windows NT 10.0; Win64; x64) AppleWebKit/537.36 (KHTML, like Gecko) Chrome/129.0.0.0 Safari/537.36" version="24.7.16">
  <diagram name="Page-1" id="OKbt756RQ8Cy7oioBfP2">
    <mxGraphModel dx="13350" dy="8460" grid="1" gridSize="10" guides="1" tooltips="1" connect="1" arrows="1" fold="1" page="1" pageScale="1" pageWidth="850" pageHeight="1100" math="0" shadow="0">
      <root>
        <mxCell id="0" />
        <mxCell id="1" parent="0" />
        <mxCell id="E9qOfvGDdsXbpuX3ZDIC-264" style="edgeStyle=orthogonalEdgeStyle;rounded=0;orthogonalLoop=1;jettySize=auto;html=1;exitX=0.875;exitY=0.5;exitDx=0;exitDy=0;exitPerimeter=0;strokeWidth=3;" edge="1" parent="1" source="E9qOfvGDdsXbpuX3ZDIC-1">
          <mxGeometry relative="1" as="geometry">
            <mxPoint x="700" y="85.17647058823559" as="targetPoint" />
          </mxGeometry>
        </mxCell>
        <mxCell id="E9qOfvGDdsXbpuX3ZDIC-1" value="&lt;div&gt;&lt;span style=&quot;font-size: 18px;&quot;&gt;&lt;b&gt;Ibadan&lt;/b&gt;&lt;/span&gt;&lt;/div&gt;&lt;font size=&quot;3&quot;&gt;&lt;b&gt;Farmlands&lt;/b&gt;&lt;/font&gt;" style="ellipse;shape=cloud;whiteSpace=wrap;html=1;strokeWidth=5;fillColor=#d5e8d4;strokeColor=#82b366;" vertex="1" parent="1">
          <mxGeometry x="180" y="-60" width="360" height="290" as="geometry" />
        </mxCell>
        <mxCell id="E9qOfvGDdsXbpuX3ZDIC-8" value="Rice" style="ellipse;shape=cloud;whiteSpace=wrap;html=1;strokeWidth=5;fillColor=#d5e8d4;strokeColor=#82b366;" vertex="1" parent="1">
          <mxGeometry x="210" y="10" width="120" height="80" as="geometry" />
        </mxCell>
        <mxCell id="E9qOfvGDdsXbpuX3ZDIC-9" value="Millet" style="ellipse;shape=cloud;whiteSpace=wrap;html=1;strokeWidth=5;fillColor=#d5e8d4;strokeColor=#82b366;" vertex="1" parent="1">
          <mxGeometry x="220" y="90" width="120" height="80" as="geometry" />
        </mxCell>
        <mxCell id="E9qOfvGDdsXbpuX3ZDIC-10" value="Sorghum" style="ellipse;shape=cloud;whiteSpace=wrap;html=1;strokeWidth=5;fillColor=#d5e8d4;strokeColor=#82b366;" vertex="1" parent="1">
          <mxGeometry x="390" width="120" height="80" as="geometry" />
        </mxCell>
        <mxCell id="E9qOfvGDdsXbpuX3ZDIC-11" value="Cassava" style="ellipse;shape=cloud;whiteSpace=wrap;html=1;strokeWidth=5;fillColor=#d5e8d4;strokeColor=#82b366;" vertex="1" parent="1">
          <mxGeometry x="390" y="80" width="120" height="80" as="geometry" />
        </mxCell>
        <mxCell id="E9qOfvGDdsXbpuX3ZDIC-266" style="edgeStyle=orthogonalEdgeStyle;rounded=0;orthogonalLoop=1;jettySize=auto;html=1;exitX=0.875;exitY=0.5;exitDx=0;exitDy=0;exitPerimeter=0;strokeWidth=3;" edge="1" parent="1" source="E9qOfvGDdsXbpuX3ZDIC-12">
          <mxGeometry relative="1" as="geometry">
            <mxPoint x="700" y="465.1764705882356" as="targetPoint" />
          </mxGeometry>
        </mxCell>
        <mxCell id="E9qOfvGDdsXbpuX3ZDIC-12" value="&lt;div&gt;&lt;font style=&quot;font-size: 18px;&quot;&gt;&lt;b&gt;Osogbo&lt;/b&gt;&lt;/font&gt;&lt;/div&gt;&lt;font size=&quot;3&quot;&gt;&lt;b&gt;Farmlands&lt;/b&gt;&lt;/font&gt;" style="ellipse;shape=cloud;whiteSpace=wrap;html=1;strokeWidth=5;fillColor=#d5e8d4;strokeColor=#82b366;" vertex="1" parent="1">
          <mxGeometry x="180" y="320" width="360" height="290" as="geometry" />
        </mxCell>
        <mxCell id="E9qOfvGDdsXbpuX3ZDIC-13" value="Rice" style="ellipse;shape=cloud;whiteSpace=wrap;html=1;strokeWidth=5;fillColor=#d5e8d4;strokeColor=#82b366;" vertex="1" parent="1">
          <mxGeometry x="210" y="390" width="120" height="80" as="geometry" />
        </mxCell>
        <mxCell id="E9qOfvGDdsXbpuX3ZDIC-14" value="Millet" style="ellipse;shape=cloud;whiteSpace=wrap;html=1;strokeWidth=5;fillColor=#d5e8d4;strokeColor=#82b366;" vertex="1" parent="1">
          <mxGeometry x="220" y="470" width="120" height="80" as="geometry" />
        </mxCell>
        <mxCell id="E9qOfvGDdsXbpuX3ZDIC-15" value="Sorghum" style="ellipse;shape=cloud;whiteSpace=wrap;html=1;strokeWidth=5;fillColor=#d5e8d4;strokeColor=#82b366;" vertex="1" parent="1">
          <mxGeometry x="390" y="380" width="120" height="80" as="geometry" />
        </mxCell>
        <mxCell id="E9qOfvGDdsXbpuX3ZDIC-16" value="Cassava" style="ellipse;shape=cloud;whiteSpace=wrap;html=1;strokeWidth=5;fillColor=#d5e8d4;strokeColor=#82b366;" vertex="1" parent="1">
          <mxGeometry x="390" y="460" width="120" height="80" as="geometry" />
        </mxCell>
        <mxCell id="E9qOfvGDdsXbpuX3ZDIC-267" style="edgeStyle=orthogonalEdgeStyle;rounded=0;orthogonalLoop=1;jettySize=auto;html=1;exitX=0.875;exitY=0.5;exitDx=0;exitDy=0;exitPerimeter=0;strokeWidth=3;" edge="1" parent="1" source="E9qOfvGDdsXbpuX3ZDIC-17">
          <mxGeometry relative="1" as="geometry">
            <mxPoint x="700" y="865.1764705882356" as="targetPoint" />
          </mxGeometry>
        </mxCell>
        <mxCell id="E9qOfvGDdsXbpuX3ZDIC-17" value="&lt;div&gt;&lt;span style=&quot;font-size: 18px;&quot;&gt;&lt;b&gt;Ikeja&lt;/b&gt;&lt;/span&gt;&lt;/div&gt;&lt;font size=&quot;3&quot;&gt;&lt;b&gt;Farmlands&lt;/b&gt;&lt;/font&gt;" style="ellipse;shape=cloud;whiteSpace=wrap;html=1;strokeWidth=5;fillColor=#d5e8d4;strokeColor=#82b366;" vertex="1" parent="1">
          <mxGeometry x="190" y="720" width="360" height="290" as="geometry" />
        </mxCell>
        <mxCell id="E9qOfvGDdsXbpuX3ZDIC-18" value="Rice" style="ellipse;shape=cloud;whiteSpace=wrap;html=1;strokeWidth=5;fillColor=#d5e8d4;strokeColor=#82b366;" vertex="1" parent="1">
          <mxGeometry x="220" y="790" width="120" height="80" as="geometry" />
        </mxCell>
        <mxCell id="E9qOfvGDdsXbpuX3ZDIC-19" value="Millet" style="ellipse;shape=cloud;whiteSpace=wrap;html=1;strokeWidth=5;fillColor=#d5e8d4;strokeColor=#82b366;" vertex="1" parent="1">
          <mxGeometry x="230" y="870" width="120" height="80" as="geometry" />
        </mxCell>
        <mxCell id="E9qOfvGDdsXbpuX3ZDIC-20" value="Sorghum" style="ellipse;shape=cloud;whiteSpace=wrap;html=1;strokeWidth=5;fillColor=#d5e8d4;strokeColor=#82b366;" vertex="1" parent="1">
          <mxGeometry x="400" y="780" width="120" height="80" as="geometry" />
        </mxCell>
        <mxCell id="E9qOfvGDdsXbpuX3ZDIC-21" value="Cassava" style="ellipse;shape=cloud;whiteSpace=wrap;html=1;strokeWidth=5;fillColor=#d5e8d4;strokeColor=#82b366;" vertex="1" parent="1">
          <mxGeometry x="400" y="860" width="120" height="80" as="geometry" />
        </mxCell>
        <mxCell id="E9qOfvGDdsXbpuX3ZDIC-268" style="edgeStyle=orthogonalEdgeStyle;rounded=0;orthogonalLoop=1;jettySize=auto;html=1;exitX=0.875;exitY=0.5;exitDx=0;exitDy=0;exitPerimeter=0;entryX=0;entryY=0.5;entryDx=0;entryDy=0;strokeWidth=3;" edge="1" parent="1" source="E9qOfvGDdsXbpuX3ZDIC-22" target="E9qOfvGDdsXbpuX3ZDIC-134">
          <mxGeometry relative="1" as="geometry" />
        </mxCell>
        <mxCell id="E9qOfvGDdsXbpuX3ZDIC-22" value="&lt;div&gt;&lt;font style=&quot;font-size: 18px;&quot;&gt;&lt;b&gt;Akure&lt;/b&gt;&lt;/font&gt;&lt;/div&gt;&lt;font size=&quot;3&quot;&gt;&lt;b&gt;Farmlands&lt;/b&gt;&lt;/font&gt;" style="ellipse;shape=cloud;whiteSpace=wrap;html=1;strokeWidth=5;fillColor=#d5e8d4;strokeColor=#82b366;" vertex="1" parent="1">
          <mxGeometry x="200" y="1150" width="360" height="290" as="geometry" />
        </mxCell>
        <mxCell id="E9qOfvGDdsXbpuX3ZDIC-23" value="Rice" style="ellipse;shape=cloud;whiteSpace=wrap;html=1;strokeWidth=5;fillColor=#d5e8d4;strokeColor=#82b366;" vertex="1" parent="1">
          <mxGeometry x="230" y="1220" width="120" height="80" as="geometry" />
        </mxCell>
        <mxCell id="E9qOfvGDdsXbpuX3ZDIC-24" value="Millet" style="ellipse;shape=cloud;whiteSpace=wrap;html=1;strokeWidth=5;fillColor=#d5e8d4;strokeColor=#82b366;" vertex="1" parent="1">
          <mxGeometry x="240" y="1300" width="120" height="80" as="geometry" />
        </mxCell>
        <mxCell id="E9qOfvGDdsXbpuX3ZDIC-25" value="Sorghum" style="ellipse;shape=cloud;whiteSpace=wrap;html=1;strokeWidth=5;fillColor=#d5e8d4;strokeColor=#82b366;" vertex="1" parent="1">
          <mxGeometry x="410" y="1210" width="120" height="80" as="geometry" />
        </mxCell>
        <mxCell id="E9qOfvGDdsXbpuX3ZDIC-26" value="Cassava" style="ellipse;shape=cloud;whiteSpace=wrap;html=1;strokeWidth=5;fillColor=#d5e8d4;strokeColor=#82b366;" vertex="1" parent="1">
          <mxGeometry x="410" y="1290" width="120" height="80" as="geometry" />
        </mxCell>
        <mxCell id="E9qOfvGDdsXbpuX3ZDIC-27" value="&lt;div&gt;&lt;font style=&quot;font-size: 18px;&quot;&gt;&lt;b&gt;Abeokuta&lt;/b&gt;&lt;/font&gt;&lt;/div&gt;&lt;font size=&quot;3&quot;&gt;&lt;b&gt;Farmlands&lt;/b&gt;&lt;/font&gt;" style="ellipse;shape=cloud;whiteSpace=wrap;html=1;strokeWidth=5;fillColor=#d5e8d4;strokeColor=#82b366;" vertex="1" parent="1">
          <mxGeometry x="230" y="1590" width="360" height="290" as="geometry" />
        </mxCell>
        <mxCell id="E9qOfvGDdsXbpuX3ZDIC-28" value="Rice" style="ellipse;shape=cloud;whiteSpace=wrap;html=1;strokeWidth=5;fillColor=#d5e8d4;strokeColor=#82b366;" vertex="1" parent="1">
          <mxGeometry x="250" y="1670" width="120" height="80" as="geometry" />
        </mxCell>
        <mxCell id="E9qOfvGDdsXbpuX3ZDIC-29" value="Millet" style="ellipse;shape=cloud;whiteSpace=wrap;html=1;strokeWidth=5;fillColor=#d5e8d4;strokeColor=#82b366;" vertex="1" parent="1">
          <mxGeometry x="270" y="1740" width="120" height="80" as="geometry" />
        </mxCell>
        <mxCell id="E9qOfvGDdsXbpuX3ZDIC-30" value="Sorghum" style="ellipse;shape=cloud;whiteSpace=wrap;html=1;strokeWidth=5;fillColor=#d5e8d4;strokeColor=#82b366;" vertex="1" parent="1">
          <mxGeometry x="440" y="1650" width="120" height="80" as="geometry" />
        </mxCell>
        <mxCell id="E9qOfvGDdsXbpuX3ZDIC-31" value="Cassava" style="ellipse;shape=cloud;whiteSpace=wrap;html=1;strokeWidth=5;fillColor=#d5e8d4;strokeColor=#82b366;" vertex="1" parent="1">
          <mxGeometry x="440" y="1730" width="120" height="80" as="geometry" />
        </mxCell>
        <mxCell id="E9qOfvGDdsXbpuX3ZDIC-279" style="edgeStyle=orthogonalEdgeStyle;rounded=0;orthogonalLoop=1;jettySize=auto;html=1;exitX=1;exitY=0.5;exitDx=0;exitDy=0;exitPerimeter=0;entryX=0;entryY=0.5;entryDx=0;entryDy=0;strokeWidth=3;" edge="1" parent="1" source="E9qOfvGDdsXbpuX3ZDIC-32" target="E9qOfvGDdsXbpuX3ZDIC-194">
          <mxGeometry relative="1" as="geometry" />
        </mxCell>
        <mxCell id="E9qOfvGDdsXbpuX3ZDIC-32" value="&lt;font style=&quot;font-size: 18px;&quot;&gt;&lt;b&gt;Ibadan&amp;nbsp; storage Facility&lt;/b&gt;&lt;/font&gt;" style="shape=cylinder3;whiteSpace=wrap;html=1;boundedLbl=1;backgroundOutline=1;size=15;strokeWidth=5;fillColor=#e1d5e7;strokeColor=#9673a6;" vertex="1" parent="1">
          <mxGeometry x="1130" y="-40" width="150" height="250" as="geometry" />
        </mxCell>
        <mxCell id="E9qOfvGDdsXbpuX3ZDIC-278" style="edgeStyle=orthogonalEdgeStyle;rounded=0;orthogonalLoop=1;jettySize=auto;html=1;exitX=1;exitY=0.5;exitDx=0;exitDy=0;exitPerimeter=0;entryX=0;entryY=0.5;entryDx=0;entryDy=0;strokeWidth=3;" edge="1" parent="1" source="E9qOfvGDdsXbpuX3ZDIC-33" target="E9qOfvGDdsXbpuX3ZDIC-198">
          <mxGeometry relative="1" as="geometry" />
        </mxCell>
        <mxCell id="E9qOfvGDdsXbpuX3ZDIC-33" value="&lt;font style=&quot;font-size: 18px;&quot;&gt;&lt;b&gt;Osogbo&amp;nbsp; storage Facility&lt;/b&gt;&lt;/font&gt;" style="shape=cylinder3;whiteSpace=wrap;html=1;boundedLbl=1;backgroundOutline=1;size=15;strokeWidth=5;fillColor=#e1d5e7;strokeColor=#9673a6;" vertex="1" parent="1">
          <mxGeometry x="1130" y="320" width="150" height="250" as="geometry" />
        </mxCell>
        <mxCell id="E9qOfvGDdsXbpuX3ZDIC-39" value="&lt;font style=&quot;font-size: 18px;&quot;&gt;&lt;b&gt;Ikeja storage Facility&lt;/b&gt;&lt;/font&gt;" style="shape=cylinder3;whiteSpace=wrap;html=1;boundedLbl=1;backgroundOutline=1;size=15;strokeWidth=5;fillColor=#e1d5e7;strokeColor=#9673a6;" vertex="1" parent="1">
          <mxGeometry x="1140" y="720" width="150" height="250" as="geometry" />
        </mxCell>
        <mxCell id="E9qOfvGDdsXbpuX3ZDIC-40" value="&lt;font style=&quot;font-size: 18px;&quot;&gt;&lt;b&gt;Akure&amp;nbsp; storage Facility&lt;/b&gt;&lt;/font&gt;" style="shape=cylinder3;whiteSpace=wrap;html=1;boundedLbl=1;backgroundOutline=1;size=15;strokeWidth=5;fillColor=#e1d5e7;strokeColor=#9673a6;" vertex="1" parent="1">
          <mxGeometry x="1140" y="1160" width="150" height="250" as="geometry" />
        </mxCell>
        <mxCell id="E9qOfvGDdsXbpuX3ZDIC-275" style="edgeStyle=orthogonalEdgeStyle;rounded=0;orthogonalLoop=1;jettySize=auto;html=1;exitX=1;exitY=0.5;exitDx=0;exitDy=0;exitPerimeter=0;strokeWidth=3;" edge="1" parent="1" source="E9qOfvGDdsXbpuX3ZDIC-41">
          <mxGeometry relative="1" as="geometry">
            <mxPoint x="1480" y="1735" as="targetPoint" />
          </mxGeometry>
        </mxCell>
        <mxCell id="E9qOfvGDdsXbpuX3ZDIC-41" value="&lt;font style=&quot;font-size: 18px;&quot;&gt;&lt;b&gt;Osogbo&amp;nbsp; storage Facility&lt;/b&gt;&lt;/font&gt;" style="shape=cylinder3;whiteSpace=wrap;html=1;boundedLbl=1;backgroundOutline=1;size=15;strokeWidth=5;fillColor=#e1d5e7;strokeColor=#9673a6;" vertex="1" parent="1">
          <mxGeometry x="1150" y="1610" width="150" height="250" as="geometry" />
        </mxCell>
        <mxCell id="E9qOfvGDdsXbpuX3ZDIC-42" value="" style="rounded=1;whiteSpace=wrap;html=1;strokeWidth=3;fillColor=none;" vertex="1" parent="1">
          <mxGeometry x="1910" y="-30" width="180" height="210" as="geometry" />
        </mxCell>
        <mxCell id="E9qOfvGDdsXbpuX3ZDIC-44" value="&lt;font style=&quot;font-size: 18px;&quot;&gt;Process&lt;/font&gt;" style="label;whiteSpace=wrap;html=1;align=center;verticalAlign=bottom;spacingLeft=0;spacingBottom=4;imageAlign=center;imageVerticalAlign=top;image=img/clipart/Gear_128x128.png;arcSize=38;strokeWidth=3;fillColor=none;" vertex="1" parent="1">
          <mxGeometry x="1940" y="5" width="120" height="140" as="geometry" />
        </mxCell>
        <mxCell id="E9qOfvGDdsXbpuX3ZDIC-45" value="" style="shape=image;html=1;verticalLabelPosition=bottom;verticalAlign=top;imageAspect=0;image=img/clipart/Gear_128x128.png;strokeWidth=3;fillColor=none;" vertex="1" parent="1">
          <mxGeometry x="1950" y="62.5" width="40" height="45" as="geometry" />
        </mxCell>
        <mxCell id="E9qOfvGDdsXbpuX3ZDIC-46" value="" style="shape=image;html=1;verticalLabelPosition=bottom;verticalAlign=top;imageAspect=0;image=img/clipart/Gear_128x128.png;strokeWidth=3;fillColor=none;" vertex="1" parent="1">
          <mxGeometry x="2010" y="62.5" width="40" height="45" as="geometry" />
        </mxCell>
        <mxCell id="E9qOfvGDdsXbpuX3ZDIC-294" style="edgeStyle=orthogonalEdgeStyle;rounded=0;orthogonalLoop=1;jettySize=auto;html=1;exitX=1;exitY=0.5;exitDx=0;exitDy=0;strokeWidth=3;" edge="1" parent="1" source="E9qOfvGDdsXbpuX3ZDIC-48">
          <mxGeometry relative="1" as="geometry">
            <mxPoint x="2690" y="445" as="targetPoint" />
          </mxGeometry>
        </mxCell>
        <mxCell id="E9qOfvGDdsXbpuX3ZDIC-48" value="" style="rounded=1;whiteSpace=wrap;html=1;strokeWidth=3;fillColor=none;" vertex="1" parent="1">
          <mxGeometry x="1910" y="340" width="180" height="210" as="geometry" />
        </mxCell>
        <mxCell id="E9qOfvGDdsXbpuX3ZDIC-49" value="&lt;font style=&quot;font-size: 18px;&quot;&gt;Process&lt;/font&gt;" style="label;whiteSpace=wrap;html=1;align=center;verticalAlign=bottom;spacingLeft=0;spacingBottom=4;imageAlign=center;imageVerticalAlign=top;image=img/clipart/Gear_128x128.png;arcSize=38;strokeWidth=3;fillColor=none;" vertex="1" parent="1">
          <mxGeometry x="1940" y="375" width="120" height="140" as="geometry" />
        </mxCell>
        <mxCell id="E9qOfvGDdsXbpuX3ZDIC-50" value="" style="shape=image;html=1;verticalLabelPosition=bottom;verticalAlign=top;imageAspect=0;image=img/clipart/Gear_128x128.png;strokeWidth=3;fillColor=none;" vertex="1" parent="1">
          <mxGeometry x="1950" y="432.5" width="40" height="45" as="geometry" />
        </mxCell>
        <mxCell id="E9qOfvGDdsXbpuX3ZDIC-51" value="" style="shape=image;html=1;verticalLabelPosition=bottom;verticalAlign=top;imageAspect=0;image=img/clipart/Gear_128x128.png;strokeWidth=3;fillColor=none;" vertex="1" parent="1">
          <mxGeometry x="2010" y="432.5" width="40" height="45" as="geometry" />
        </mxCell>
        <mxCell id="E9qOfvGDdsXbpuX3ZDIC-52" value="" style="rounded=1;whiteSpace=wrap;html=1;strokeWidth=3;fillColor=none;" vertex="1" parent="1">
          <mxGeometry x="1920" y="750" width="180" height="210" as="geometry" />
        </mxCell>
        <mxCell id="E9qOfvGDdsXbpuX3ZDIC-53" value="&lt;font style=&quot;font-size: 18px;&quot;&gt;Process&lt;/font&gt;" style="label;whiteSpace=wrap;html=1;align=center;verticalAlign=bottom;spacingLeft=0;spacingBottom=4;imageAlign=center;imageVerticalAlign=top;image=img/clipart/Gear_128x128.png;arcSize=38;strokeWidth=3;fillColor=none;" vertex="1" parent="1">
          <mxGeometry x="1950" y="785" width="120" height="140" as="geometry" />
        </mxCell>
        <mxCell id="E9qOfvGDdsXbpuX3ZDIC-54" value="" style="shape=image;html=1;verticalLabelPosition=bottom;verticalAlign=top;imageAspect=0;image=img/clipart/Gear_128x128.png;strokeWidth=3;fillColor=none;" vertex="1" parent="1">
          <mxGeometry x="1960" y="842.5" width="40" height="45" as="geometry" />
        </mxCell>
        <mxCell id="E9qOfvGDdsXbpuX3ZDIC-55" value="" style="shape=image;html=1;verticalLabelPosition=bottom;verticalAlign=top;imageAspect=0;image=img/clipart/Gear_128x128.png;strokeWidth=3;fillColor=none;" vertex="1" parent="1">
          <mxGeometry x="2020" y="842.5" width="40" height="45" as="geometry" />
        </mxCell>
        <mxCell id="E9qOfvGDdsXbpuX3ZDIC-56" value="" style="rounded=1;whiteSpace=wrap;html=1;strokeWidth=3;fillColor=none;" vertex="1" parent="1">
          <mxGeometry x="1920" y="1180" width="180" height="210" as="geometry" />
        </mxCell>
        <mxCell id="E9qOfvGDdsXbpuX3ZDIC-57" value="&lt;font style=&quot;font-size: 18px;&quot;&gt;Process&lt;/font&gt;" style="label;whiteSpace=wrap;html=1;align=center;verticalAlign=bottom;spacingLeft=0;spacingBottom=4;imageAlign=center;imageVerticalAlign=top;image=img/clipart/Gear_128x128.png;arcSize=38;strokeWidth=3;fillColor=none;" vertex="1" parent="1">
          <mxGeometry x="1950" y="1215" width="120" height="140" as="geometry" />
        </mxCell>
        <mxCell id="E9qOfvGDdsXbpuX3ZDIC-58" value="" style="shape=image;html=1;verticalLabelPosition=bottom;verticalAlign=top;imageAspect=0;image=img/clipart/Gear_128x128.png;strokeWidth=3;fillColor=none;" vertex="1" parent="1">
          <mxGeometry x="1960" y="1272.5" width="40" height="45" as="geometry" />
        </mxCell>
        <mxCell id="E9qOfvGDdsXbpuX3ZDIC-59" value="" style="shape=image;html=1;verticalLabelPosition=bottom;verticalAlign=top;imageAspect=0;image=img/clipart/Gear_128x128.png;strokeWidth=3;fillColor=none;" vertex="1" parent="1">
          <mxGeometry x="2020" y="1272.5" width="40" height="45" as="geometry" />
        </mxCell>
        <mxCell id="E9qOfvGDdsXbpuX3ZDIC-291" style="edgeStyle=orthogonalEdgeStyle;rounded=0;orthogonalLoop=1;jettySize=auto;html=1;exitX=1;exitY=0.75;exitDx=0;exitDy=0;strokeWidth=3;" edge="1" parent="1" source="E9qOfvGDdsXbpuX3ZDIC-60">
          <mxGeometry relative="1" as="geometry">
            <mxPoint x="2870" y="1260" as="targetPoint" />
          </mxGeometry>
        </mxCell>
        <mxCell id="E9qOfvGDdsXbpuX3ZDIC-60" value="" style="rounded=1;whiteSpace=wrap;html=1;strokeWidth=3;fillColor=none;" vertex="1" parent="1">
          <mxGeometry x="1930" y="1640" width="180" height="210" as="geometry" />
        </mxCell>
        <mxCell id="E9qOfvGDdsXbpuX3ZDIC-61" value="&lt;font style=&quot;font-size: 18px;&quot;&gt;Process&lt;/font&gt;" style="label;whiteSpace=wrap;html=1;align=center;verticalAlign=bottom;spacingLeft=0;spacingBottom=4;imageAlign=center;imageVerticalAlign=top;image=img/clipart/Gear_128x128.png;arcSize=38;strokeWidth=3;fillColor=none;" vertex="1" parent="1">
          <mxGeometry x="1960" y="1675" width="120" height="140" as="geometry" />
        </mxCell>
        <mxCell id="E9qOfvGDdsXbpuX3ZDIC-62" value="" style="shape=image;html=1;verticalLabelPosition=bottom;verticalAlign=top;imageAspect=0;image=img/clipart/Gear_128x128.png;strokeWidth=3;fillColor=none;" vertex="1" parent="1">
          <mxGeometry x="1970" y="1732.5" width="40" height="45" as="geometry" />
        </mxCell>
        <mxCell id="E9qOfvGDdsXbpuX3ZDIC-63" value="" style="shape=image;html=1;verticalLabelPosition=bottom;verticalAlign=top;imageAspect=0;image=img/clipart/Gear_128x128.png;strokeWidth=3;fillColor=none;" vertex="1" parent="1">
          <mxGeometry x="2030" y="1732.5" width="40" height="45" as="geometry" />
        </mxCell>
        <mxCell id="E9qOfvGDdsXbpuX3ZDIC-281" style="edgeStyle=orthogonalEdgeStyle;rounded=0;orthogonalLoop=1;jettySize=auto;html=1;exitX=0.5;exitY=0;exitDx=0;exitDy=0;entryX=0;entryY=0.5;entryDx=0;entryDy=0;strokeWidth=3;fillColor=#647687;strokeColor=#314354;" edge="1" parent="1" source="E9qOfvGDdsXbpuX3ZDIC-64" target="E9qOfvGDdsXbpuX3ZDIC-98">
          <mxGeometry relative="1" as="geometry">
            <Array as="points">
              <mxPoint x="3450" y="50" />
              <mxPoint x="3450" y="-127" />
            </Array>
          </mxGeometry>
        </mxCell>
        <mxCell id="E9qOfvGDdsXbpuX3ZDIC-283" style="edgeStyle=orthogonalEdgeStyle;rounded=0;orthogonalLoop=1;jettySize=auto;html=1;exitX=1;exitY=0.25;exitDx=0;exitDy=0;strokeWidth=3;fillColor=#647687;strokeColor=#314354;" edge="1" parent="1" source="E9qOfvGDdsXbpuX3ZDIC-64">
          <mxGeometry relative="1" as="geometry">
            <mxPoint x="3730" y="110" as="targetPoint" />
          </mxGeometry>
        </mxCell>
        <mxCell id="E9qOfvGDdsXbpuX3ZDIC-284" style="edgeStyle=orthogonalEdgeStyle;rounded=0;orthogonalLoop=1;jettySize=auto;html=1;exitX=1;exitY=0.5;exitDx=0;exitDy=0;entryX=0;entryY=0.5;entryDx=0;entryDy=0;strokeWidth=3;fillColor=#647687;strokeColor=#314354;" edge="1" parent="1" source="E9qOfvGDdsXbpuX3ZDIC-64" target="E9qOfvGDdsXbpuX3ZDIC-109">
          <mxGeometry relative="1" as="geometry" />
        </mxCell>
        <mxCell id="E9qOfvGDdsXbpuX3ZDIC-285" style="edgeStyle=orthogonalEdgeStyle;rounded=0;orthogonalLoop=1;jettySize=auto;html=1;exitX=1;exitY=0.75;exitDx=0;exitDy=0;entryX=0;entryY=0.5;entryDx=0;entryDy=0;strokeWidth=3;fillColor=#647687;strokeColor=#314354;" edge="1" parent="1" source="E9qOfvGDdsXbpuX3ZDIC-64" target="E9qOfvGDdsXbpuX3ZDIC-112">
          <mxGeometry relative="1" as="geometry" />
        </mxCell>
        <mxCell id="E9qOfvGDdsXbpuX3ZDIC-286" style="edgeStyle=orthogonalEdgeStyle;rounded=0;orthogonalLoop=1;jettySize=auto;html=1;exitX=1;exitY=0.5;exitDx=0;exitDy=0;entryX=0;entryY=0.75;entryDx=0;entryDy=0;strokeWidth=3;fillColor=#647687;strokeColor=#314354;" edge="1" parent="1" source="E9qOfvGDdsXbpuX3ZDIC-64" target="E9qOfvGDdsXbpuX3ZDIC-111">
          <mxGeometry relative="1" as="geometry" />
        </mxCell>
        <mxCell id="E9qOfvGDdsXbpuX3ZDIC-287" style="edgeStyle=orthogonalEdgeStyle;rounded=0;orthogonalLoop=1;jettySize=auto;html=1;exitX=0.5;exitY=1;exitDx=0;exitDy=0;entryX=0.5;entryY=1;entryDx=0;entryDy=0;strokeWidth=3;fillColor=#647687;strokeColor=#314354;" edge="1" parent="1" source="E9qOfvGDdsXbpuX3ZDIC-64" target="E9qOfvGDdsXbpuX3ZDIC-77">
          <mxGeometry relative="1" as="geometry">
            <Array as="points">
              <mxPoint x="2965" y="1560" />
              <mxPoint x="3960" y="1560" />
            </Array>
          </mxGeometry>
        </mxCell>
        <mxCell id="E9qOfvGDdsXbpuX3ZDIC-288" style="edgeStyle=orthogonalEdgeStyle;rounded=0;orthogonalLoop=1;jettySize=auto;html=1;exitX=1;exitY=0.5;exitDx=0;exitDy=0;entryX=0;entryY=0.25;entryDx=0;entryDy=0;strokeWidth=3;fillColor=#647687;strokeColor=#314354;" edge="1" parent="1" source="E9qOfvGDdsXbpuX3ZDIC-64" target="E9qOfvGDdsXbpuX3ZDIC-110">
          <mxGeometry relative="1" as="geometry" />
        </mxCell>
        <mxCell id="E9qOfvGDdsXbpuX3ZDIC-289" style="edgeStyle=orthogonalEdgeStyle;rounded=0;orthogonalLoop=1;jettySize=auto;html=1;exitX=0.5;exitY=0;exitDx=0;exitDy=0;entryX=0.5;entryY=0;entryDx=0;entryDy=0;strokeWidth=3;fillColor=#647687;strokeColor=#314354;" edge="1" parent="1" source="E9qOfvGDdsXbpuX3ZDIC-64" target="E9qOfvGDdsXbpuX3ZDIC-77">
          <mxGeometry relative="1" as="geometry">
            <Array as="points">
              <mxPoint x="2965" y="-400" />
              <mxPoint x="3960" y="-400" />
            </Array>
          </mxGeometry>
        </mxCell>
        <mxCell id="E9qOfvGDdsXbpuX3ZDIC-64" value="&lt;font style=&quot;font-size: 36px;&quot;&gt;Main Distribution Center&lt;/font&gt;" style="shape=ext;double=1;rounded=1;whiteSpace=wrap;html=1;strokeWidth=5;fillColor=#f8cecc;strokeColor=#b85450;" vertex="1" parent="1">
          <mxGeometry x="2710" y="50" width="510" height="1160" as="geometry" />
        </mxCell>
        <mxCell id="E9qOfvGDdsXbpuX3ZDIC-265" style="edgeStyle=orthogonalEdgeStyle;rounded=0;orthogonalLoop=1;jettySize=auto;html=1;exitX=0.875;exitY=0.5;exitDx=0;exitDy=0;exitPerimeter=0;strokeWidth=3;" edge="1" parent="1" source="E9qOfvGDdsXbpuX3ZDIC-65">
          <mxGeometry relative="1" as="geometry">
            <mxPoint x="700" y="-314.8235294117644" as="targetPoint" />
          </mxGeometry>
        </mxCell>
        <mxCell id="E9qOfvGDdsXbpuX3ZDIC-65" value="&lt;div&gt;&lt;b style=&quot;background-color: initial; font-size: 18px;&quot;&gt;Ado-Ekiti&amp;nbsp;&lt;/b&gt;&lt;/div&gt;&lt;div&gt;&lt;b style=&quot;font-size: medium; background-color: initial;&quot;&gt;Farmlands&lt;/b&gt;&lt;br&gt;&lt;/div&gt;" style="ellipse;shape=cloud;whiteSpace=wrap;html=1;strokeWidth=5;fillColor=#d5e8d4;strokeColor=#82b366;" vertex="1" parent="1">
          <mxGeometry x="190" y="-460" width="360" height="290" as="geometry" />
        </mxCell>
        <mxCell id="E9qOfvGDdsXbpuX3ZDIC-66" value="Rice" style="ellipse;shape=cloud;whiteSpace=wrap;html=1;strokeWidth=5;fillColor=#d5e8d4;strokeColor=#82b366;" vertex="1" parent="1">
          <mxGeometry x="210" y="-380" width="120" height="80" as="geometry" />
        </mxCell>
        <mxCell id="E9qOfvGDdsXbpuX3ZDIC-67" value="Millet" style="ellipse;shape=cloud;whiteSpace=wrap;html=1;strokeWidth=5;fillColor=#d5e8d4;strokeColor=#82b366;" vertex="1" parent="1">
          <mxGeometry x="230" y="-310" width="120" height="80" as="geometry" />
        </mxCell>
        <mxCell id="E9qOfvGDdsXbpuX3ZDIC-68" value="Sorghum" style="ellipse;shape=cloud;whiteSpace=wrap;html=1;strokeWidth=5;fillColor=#d5e8d4;strokeColor=#82b366;" vertex="1" parent="1">
          <mxGeometry x="400" y="-400" width="120" height="80" as="geometry" />
        </mxCell>
        <mxCell id="E9qOfvGDdsXbpuX3ZDIC-69" value="Cassava" style="ellipse;shape=cloud;whiteSpace=wrap;html=1;strokeWidth=5;fillColor=#d5e8d4;strokeColor=#82b366;" vertex="1" parent="1">
          <mxGeometry x="400" y="-320" width="120" height="80" as="geometry" />
        </mxCell>
        <mxCell id="E9qOfvGDdsXbpuX3ZDIC-280" style="edgeStyle=orthogonalEdgeStyle;rounded=0;orthogonalLoop=1;jettySize=auto;html=1;exitX=1;exitY=0.5;exitDx=0;exitDy=0;exitPerimeter=0;entryX=0;entryY=0.5;entryDx=0;entryDy=0;strokeWidth=3;" edge="1" parent="1" source="E9qOfvGDdsXbpuX3ZDIC-70" target="E9qOfvGDdsXbpuX3ZDIC-190">
          <mxGeometry relative="1" as="geometry" />
        </mxCell>
        <mxCell id="E9qOfvGDdsXbpuX3ZDIC-70" value="&lt;font style=&quot;font-size: 18px;&quot;&gt;&lt;b&gt;Ado-Ekiti&amp;nbsp; storage Facility&lt;/b&gt;&lt;/font&gt;" style="shape=cylinder3;whiteSpace=wrap;html=1;boundedLbl=1;backgroundOutline=1;size=15;strokeWidth=5;fillColor=#e1d5e7;strokeColor=#9673a6;" vertex="1" parent="1">
          <mxGeometry x="1140" y="-440" width="150" height="250" as="geometry" />
        </mxCell>
        <mxCell id="E9qOfvGDdsXbpuX3ZDIC-290" style="edgeStyle=orthogonalEdgeStyle;rounded=0;orthogonalLoop=1;jettySize=auto;html=1;exitX=1;exitY=0.5;exitDx=0;exitDy=0;entryX=0.25;entryY=0;entryDx=0;entryDy=0;strokeWidth=3;" edge="1" parent="1" source="E9qOfvGDdsXbpuX3ZDIC-71" target="E9qOfvGDdsXbpuX3ZDIC-64">
          <mxGeometry relative="1" as="geometry" />
        </mxCell>
        <mxCell id="E9qOfvGDdsXbpuX3ZDIC-71" value="" style="rounded=1;whiteSpace=wrap;html=1;strokeWidth=3;fillColor=none;" vertex="1" parent="1">
          <mxGeometry x="1920" y="-430" width="180" height="210" as="geometry" />
        </mxCell>
        <mxCell id="E9qOfvGDdsXbpuX3ZDIC-72" value="&lt;font style=&quot;font-size: 18px;&quot;&gt;Process&lt;/font&gt;" style="label;whiteSpace=wrap;html=1;align=center;verticalAlign=bottom;spacingLeft=0;spacingBottom=4;imageAlign=center;imageVerticalAlign=top;image=img/clipart/Gear_128x128.png;arcSize=38;strokeWidth=3;fillColor=none;" vertex="1" parent="1">
          <mxGeometry x="1950" y="-395" width="120" height="140" as="geometry" />
        </mxCell>
        <mxCell id="E9qOfvGDdsXbpuX3ZDIC-73" value="" style="shape=image;html=1;verticalLabelPosition=bottom;verticalAlign=top;imageAspect=0;image=img/clipart/Gear_128x128.png;strokeWidth=3;fillColor=none;" vertex="1" parent="1">
          <mxGeometry x="1960" y="-337.5" width="40" height="45" as="geometry" />
        </mxCell>
        <mxCell id="E9qOfvGDdsXbpuX3ZDIC-74" value="" style="shape=image;html=1;verticalLabelPosition=bottom;verticalAlign=top;imageAspect=0;image=img/clipart/Gear_128x128.png;strokeWidth=3;fillColor=none;" vertex="1" parent="1">
          <mxGeometry x="2020" y="-337.5" width="40" height="45" as="geometry" />
        </mxCell>
        <mxCell id="E9qOfvGDdsXbpuX3ZDIC-77" value="" style="shape=ext;double=1;rounded=0;whiteSpace=wrap;html=1;strokeWidth=5;fillColor=#ffe6cc;strokeColor=#d79b00;" vertex="1" parent="1">
          <mxGeometry x="3775" y="-230" width="370" height="1600" as="geometry" />
        </mxCell>
        <mxCell id="E9qOfvGDdsXbpuX3ZDIC-329" style="edgeStyle=orthogonalEdgeStyle;rounded=0;orthogonalLoop=1;jettySize=auto;html=1;exitX=0.96;exitY=0.7;exitDx=0;exitDy=0;exitPerimeter=0;dashed=1;strokeWidth=3;fillColor=#fa6800;strokeColor=#C73500;" edge="1" parent="1" source="E9qOfvGDdsXbpuX3ZDIC-80" target="E9qOfvGDdsXbpuX3ZDIC-12">
          <mxGeometry relative="1" as="geometry">
            <Array as="points">
              <mxPoint x="2788" y="-1950" />
              <mxPoint x="130" y="-1950" />
              <mxPoint x="130" y="465" />
            </Array>
          </mxGeometry>
        </mxCell>
        <mxCell id="E9qOfvGDdsXbpuX3ZDIC-80" value="&lt;font style=&quot;font-size: 48px;&quot;&gt;Emissions&lt;/font&gt;" style="ellipse;shape=cloud;whiteSpace=wrap;html=1;strokeWidth=3;fillColor=#cce5ff;strokeColor=#36393d;sketch=1;curveFitting=1;jiggle=2;shadow=1;" vertex="1" parent="1">
          <mxGeometry x="1780" y="-1450" width="1050" height="820" as="geometry" />
        </mxCell>
        <mxCell id="E9qOfvGDdsXbpuX3ZDIC-98" value="&lt;div&gt;&lt;font style=&quot;font-size: 18px;&quot;&gt;Ado-Ekiti&lt;br&gt;&lt;/font&gt;&lt;/div&gt;&lt;div&gt;&lt;font style=&quot;font-size: 18px;&quot;&gt;Consumers&lt;/font&gt;&lt;/div&gt;" style="rounded=1;whiteSpace=wrap;html=1;strokeWidth=5;fillColor=#ffe6cc;strokeColor=#d79b00;" vertex="1" parent="1">
          <mxGeometry x="3725" y="-192.5" width="480" height="130" as="geometry" />
        </mxCell>
        <mxCell id="E9qOfvGDdsXbpuX3ZDIC-99" value="&lt;font style=&quot;font-size: 14px;&quot;&gt;&lt;b&gt;Ado-Ekiti Plant&lt;/b&gt;&lt;/font&gt;" style="rounded=0;whiteSpace=wrap;html=1;strokeWidth=3;fillColor=none;" vertex="1" parent="1">
          <mxGeometry x="1950" y="-250" width="120" height="20" as="geometry" />
        </mxCell>
        <mxCell id="E9qOfvGDdsXbpuX3ZDIC-100" value="&lt;font style=&quot;font-size: 14px;&quot;&gt;&lt;b&gt;Ibadan Plant&lt;/b&gt;&lt;/font&gt;" style="rounded=0;whiteSpace=wrap;html=1;strokeWidth=3;fillColor=none;" vertex="1" parent="1">
          <mxGeometry x="1940" y="150" width="120" height="20" as="geometry" />
        </mxCell>
        <mxCell id="E9qOfvGDdsXbpuX3ZDIC-101" value="&lt;font style=&quot;font-size: 14px;&quot;&gt;&lt;b&gt;Osogbo Plant&lt;/b&gt;&lt;/font&gt;" style="rounded=0;whiteSpace=wrap;html=1;strokeWidth=3;fillColor=none;" vertex="1" parent="1">
          <mxGeometry x="1940" y="520" width="120" height="20" as="geometry" />
        </mxCell>
        <mxCell id="E9qOfvGDdsXbpuX3ZDIC-102" value="&lt;font style=&quot;font-size: 14px;&quot;&gt;&lt;b&gt;Ikeja Plant&lt;/b&gt;&lt;/font&gt;" style="rounded=0;whiteSpace=wrap;html=1;strokeWidth=3;fillColor=none;" vertex="1" parent="1">
          <mxGeometry x="1950" y="930" width="120" height="20" as="geometry" />
        </mxCell>
        <mxCell id="E9qOfvGDdsXbpuX3ZDIC-103" value="&lt;font style=&quot;font-size: 14px;&quot;&gt;&lt;b&gt;Akure Plant&lt;/b&gt;&lt;/font&gt;" style="rounded=0;whiteSpace=wrap;html=1;strokeWidth=3;fillColor=none;" vertex="1" parent="1">
          <mxGeometry x="1950" y="1360" width="120" height="20" as="geometry" />
        </mxCell>
        <mxCell id="E9qOfvGDdsXbpuX3ZDIC-104" value="&lt;font style=&quot;font-size: 14px;&quot;&gt;&lt;b&gt;Osogbo Plant&lt;/b&gt;&lt;/font&gt;" style="rounded=0;whiteSpace=wrap;html=1;strokeWidth=3;fillColor=none;" vertex="1" parent="1">
          <mxGeometry x="1960" y="1820" width="120" height="20" as="geometry" />
        </mxCell>
        <mxCell id="E9qOfvGDdsXbpuX3ZDIC-108" value="&lt;div&gt;&lt;font style=&quot;font-size: 18px;&quot;&gt;Ibadan&lt;/font&gt;&lt;/div&gt;&lt;div&gt;&lt;font style=&quot;font-size: 18px;&quot;&gt;Consumers&lt;/font&gt;&lt;/div&gt;" style="rounded=1;whiteSpace=wrap;html=1;strokeWidth=5;fillColor=#ffe6cc;strokeColor=#d79b00;" vertex="1" parent="1">
          <mxGeometry x="3735" y="40" width="480" height="130" as="geometry" />
        </mxCell>
        <mxCell id="E9qOfvGDdsXbpuX3ZDIC-109" value="&lt;div&gt;&lt;font style=&quot;font-size: 18px;&quot;&gt;Osogbo&lt;/font&gt;&lt;/div&gt;&lt;div&gt;&lt;font style=&quot;font-size: 18px;&quot;&gt;Consumers&lt;/font&gt;&lt;/div&gt;" style="rounded=1;whiteSpace=wrap;html=1;strokeWidth=5;fillColor=#ffe6cc;strokeColor=#d79b00;" vertex="1" parent="1">
          <mxGeometry x="3735" y="310" width="480" height="130" as="geometry" />
        </mxCell>
        <mxCell id="E9qOfvGDdsXbpuX3ZDIC-110" value="&lt;div&gt;&lt;font style=&quot;font-size: 18px;&quot;&gt;Ikeja&lt;/font&gt;&lt;/div&gt;&lt;div&gt;&lt;font style=&quot;font-size: 18px;&quot;&gt;Consumers&lt;/font&gt;&lt;/div&gt;" style="rounded=1;whiteSpace=wrap;html=1;strokeWidth=5;fillColor=#ffe6cc;strokeColor=#d79b00;" vertex="1" parent="1">
          <mxGeometry x="3735" y="600" width="480" height="130" as="geometry" />
        </mxCell>
        <mxCell id="E9qOfvGDdsXbpuX3ZDIC-111" value="&lt;div&gt;&lt;font style=&quot;font-size: 18px;&quot;&gt;Ado-Ekiti&lt;br&gt;&lt;/font&gt;&lt;/div&gt;&lt;div&gt;&lt;font style=&quot;font-size: 18px;&quot;&gt;Consumers&lt;/font&gt;&lt;/div&gt;" style="rounded=1;whiteSpace=wrap;html=1;strokeWidth=5;fillColor=#ffe6cc;strokeColor=#d79b00;" vertex="1" parent="1">
          <mxGeometry x="3720" y="900" width="480" height="130" as="geometry" />
        </mxCell>
        <mxCell id="E9qOfvGDdsXbpuX3ZDIC-112" value="&lt;div&gt;&lt;font style=&quot;font-size: 18px;&quot;&gt;Osogbo&lt;/font&gt;&lt;/div&gt;&lt;div&gt;&lt;font style=&quot;font-size: 18px;&quot;&gt;Consumers&lt;/font&gt;&lt;/div&gt;" style="rounded=1;whiteSpace=wrap;html=1;strokeWidth=5;fillColor=#ffe6cc;strokeColor=#d79b00;" vertex="1" parent="1">
          <mxGeometry x="3735" y="1185" width="480" height="130" as="geometry" />
        </mxCell>
        <mxCell id="E9qOfvGDdsXbpuX3ZDIC-114" value="" style="shape=ext;double=1;rounded=0;whiteSpace=wrap;html=1;strokeWidth=3;" vertex="1" parent="1">
          <mxGeometry x="710" y="-340" width="190" height="80" as="geometry" />
        </mxCell>
        <mxCell id="E9qOfvGDdsXbpuX3ZDIC-115" value="" style="shape=manualInput;whiteSpace=wrap;html=1;rotation=90;strokeWidth=3;" vertex="1" parent="1">
          <mxGeometry x="900" y="-340" width="80" height="80" as="geometry" />
        </mxCell>
        <mxCell id="E9qOfvGDdsXbpuX3ZDIC-116" value="" style="ellipse;shape=doubleEllipse;whiteSpace=wrap;html=1;aspect=fixed;strokeWidth=3;" vertex="1" parent="1">
          <mxGeometry x="750" y="-270" width="30" height="30" as="geometry" />
        </mxCell>
        <mxCell id="E9qOfvGDdsXbpuX3ZDIC-117" value="" style="ellipse;shape=doubleEllipse;whiteSpace=wrap;html=1;aspect=fixed;strokeWidth=3;" vertex="1" parent="1">
          <mxGeometry x="850" y="-270" width="30" height="30" as="geometry" />
        </mxCell>
        <mxCell id="E9qOfvGDdsXbpuX3ZDIC-118" value="" style="shape=ext;double=1;rounded=0;whiteSpace=wrap;html=1;strokeWidth=3;" vertex="1" parent="1">
          <mxGeometry x="710" y="60" width="190" height="80" as="geometry" />
        </mxCell>
        <mxCell id="E9qOfvGDdsXbpuX3ZDIC-119" value="" style="shape=manualInput;whiteSpace=wrap;html=1;rotation=90;strokeWidth=3;" vertex="1" parent="1">
          <mxGeometry x="900" y="60" width="80" height="80" as="geometry" />
        </mxCell>
        <mxCell id="E9qOfvGDdsXbpuX3ZDIC-120" value="" style="ellipse;shape=doubleEllipse;whiteSpace=wrap;html=1;aspect=fixed;strokeWidth=3;" vertex="1" parent="1">
          <mxGeometry x="750" y="130" width="30" height="30" as="geometry" />
        </mxCell>
        <mxCell id="E9qOfvGDdsXbpuX3ZDIC-121" value="" style="ellipse;shape=doubleEllipse;whiteSpace=wrap;html=1;aspect=fixed;strokeWidth=3;" vertex="1" parent="1">
          <mxGeometry x="850" y="130" width="30" height="30" as="geometry" />
        </mxCell>
        <mxCell id="E9qOfvGDdsXbpuX3ZDIC-122" value="" style="shape=ext;double=1;rounded=0;whiteSpace=wrap;html=1;strokeWidth=3;" vertex="1" parent="1">
          <mxGeometry x="710" y="420" width="190" height="80" as="geometry" />
        </mxCell>
        <mxCell id="E9qOfvGDdsXbpuX3ZDIC-123" value="" style="shape=manualInput;whiteSpace=wrap;html=1;rotation=90;strokeWidth=3;" vertex="1" parent="1">
          <mxGeometry x="900" y="420" width="80" height="80" as="geometry" />
        </mxCell>
        <mxCell id="E9qOfvGDdsXbpuX3ZDIC-124" value="" style="ellipse;shape=doubleEllipse;whiteSpace=wrap;html=1;aspect=fixed;strokeWidth=3;" vertex="1" parent="1">
          <mxGeometry x="750" y="490" width="30" height="30" as="geometry" />
        </mxCell>
        <mxCell id="E9qOfvGDdsXbpuX3ZDIC-125" value="" style="ellipse;shape=doubleEllipse;whiteSpace=wrap;html=1;aspect=fixed;strokeWidth=3;" vertex="1" parent="1">
          <mxGeometry x="850" y="490" width="30" height="30" as="geometry" />
        </mxCell>
        <mxCell id="E9qOfvGDdsXbpuX3ZDIC-130" value="" style="shape=ext;double=1;rounded=0;whiteSpace=wrap;html=1;strokeWidth=3;" vertex="1" parent="1">
          <mxGeometry x="710" y="842.5" width="190" height="80" as="geometry" />
        </mxCell>
        <mxCell id="E9qOfvGDdsXbpuX3ZDIC-131" value="" style="shape=manualInput;whiteSpace=wrap;html=1;rotation=90;strokeWidth=3;" vertex="1" parent="1">
          <mxGeometry x="900" y="842.5" width="80" height="80" as="geometry" />
        </mxCell>
        <mxCell id="E9qOfvGDdsXbpuX3ZDIC-132" value="" style="ellipse;shape=doubleEllipse;whiteSpace=wrap;html=1;aspect=fixed;strokeWidth=3;" vertex="1" parent="1">
          <mxGeometry x="750" y="912.5" width="30" height="30" as="geometry" />
        </mxCell>
        <mxCell id="E9qOfvGDdsXbpuX3ZDIC-133" value="" style="ellipse;shape=doubleEllipse;whiteSpace=wrap;html=1;aspect=fixed;strokeWidth=3;" vertex="1" parent="1">
          <mxGeometry x="850" y="912.5" width="30" height="30" as="geometry" />
        </mxCell>
        <mxCell id="E9qOfvGDdsXbpuX3ZDIC-134" value="" style="shape=ext;double=1;rounded=0;whiteSpace=wrap;html=1;strokeWidth=3;" vertex="1" parent="1">
          <mxGeometry x="710" y="1255" width="190" height="80" as="geometry" />
        </mxCell>
        <mxCell id="E9qOfvGDdsXbpuX3ZDIC-135" value="" style="shape=manualInput;whiteSpace=wrap;html=1;rotation=90;strokeWidth=3;" vertex="1" parent="1">
          <mxGeometry x="900" y="1255" width="80" height="80" as="geometry" />
        </mxCell>
        <mxCell id="E9qOfvGDdsXbpuX3ZDIC-136" value="" style="ellipse;shape=doubleEllipse;whiteSpace=wrap;html=1;aspect=fixed;strokeWidth=3;" vertex="1" parent="1">
          <mxGeometry x="750" y="1325" width="30" height="30" as="geometry" />
        </mxCell>
        <mxCell id="E9qOfvGDdsXbpuX3ZDIC-137" value="" style="ellipse;shape=doubleEllipse;whiteSpace=wrap;html=1;aspect=fixed;strokeWidth=3;" vertex="1" parent="1">
          <mxGeometry x="850" y="1325" width="30" height="30" as="geometry" />
        </mxCell>
        <mxCell id="E9qOfvGDdsXbpuX3ZDIC-138" value="" style="shape=ext;double=1;rounded=0;whiteSpace=wrap;html=1;strokeWidth=3;" vertex="1" parent="1">
          <mxGeometry x="710" y="1705" width="190" height="80" as="geometry" />
        </mxCell>
        <mxCell id="E9qOfvGDdsXbpuX3ZDIC-139" value="" style="shape=manualInput;whiteSpace=wrap;html=1;rotation=90;strokeWidth=3;" vertex="1" parent="1">
          <mxGeometry x="900" y="1705" width="80" height="80" as="geometry" />
        </mxCell>
        <mxCell id="E9qOfvGDdsXbpuX3ZDIC-140" value="" style="ellipse;shape=doubleEllipse;whiteSpace=wrap;html=1;aspect=fixed;strokeWidth=3;" vertex="1" parent="1">
          <mxGeometry x="750" y="1775" width="30" height="30" as="geometry" />
        </mxCell>
        <mxCell id="E9qOfvGDdsXbpuX3ZDIC-141" value="" style="ellipse;shape=doubleEllipse;whiteSpace=wrap;html=1;aspect=fixed;strokeWidth=3;" vertex="1" parent="1">
          <mxGeometry x="850" y="1775" width="30" height="30" as="geometry" />
        </mxCell>
        <mxCell id="E9qOfvGDdsXbpuX3ZDIC-142" value="" style="shape=ext;double=1;rounded=0;whiteSpace=wrap;html=1;strokeWidth=3;" vertex="1" parent="1">
          <mxGeometry x="720" y="-330" width="190" height="80" as="geometry" />
        </mxCell>
        <mxCell id="E9qOfvGDdsXbpuX3ZDIC-143" value="" style="shape=manualInput;whiteSpace=wrap;html=1;rotation=90;strokeWidth=3;" vertex="1" parent="1">
          <mxGeometry x="910" y="-330" width="80" height="80" as="geometry" />
        </mxCell>
        <mxCell id="E9qOfvGDdsXbpuX3ZDIC-144" value="" style="ellipse;shape=doubleEllipse;whiteSpace=wrap;html=1;aspect=fixed;strokeWidth=3;" vertex="1" parent="1">
          <mxGeometry x="760" y="-260" width="30" height="30" as="geometry" />
        </mxCell>
        <mxCell id="E9qOfvGDdsXbpuX3ZDIC-145" value="" style="ellipse;shape=doubleEllipse;whiteSpace=wrap;html=1;aspect=fixed;strokeWidth=3;" vertex="1" parent="1">
          <mxGeometry x="860" y="-260" width="30" height="30" as="geometry" />
        </mxCell>
        <mxCell id="E9qOfvGDdsXbpuX3ZDIC-146" value="" style="shape=ext;double=1;rounded=0;whiteSpace=wrap;html=1;strokeWidth=3;" vertex="1" parent="1">
          <mxGeometry x="720" y="70" width="190" height="80" as="geometry" />
        </mxCell>
        <mxCell id="E9qOfvGDdsXbpuX3ZDIC-147" value="" style="shape=manualInput;whiteSpace=wrap;html=1;rotation=90;strokeWidth=3;" vertex="1" parent="1">
          <mxGeometry x="910" y="70" width="80" height="80" as="geometry" />
        </mxCell>
        <mxCell id="E9qOfvGDdsXbpuX3ZDIC-148" value="" style="ellipse;shape=doubleEllipse;whiteSpace=wrap;html=1;aspect=fixed;strokeWidth=3;" vertex="1" parent="1">
          <mxGeometry x="760" y="140" width="30" height="30" as="geometry" />
        </mxCell>
        <mxCell id="E9qOfvGDdsXbpuX3ZDIC-149" value="" style="ellipse;shape=doubleEllipse;whiteSpace=wrap;html=1;aspect=fixed;strokeWidth=3;" vertex="1" parent="1">
          <mxGeometry x="860" y="140" width="30" height="30" as="geometry" />
        </mxCell>
        <mxCell id="E9qOfvGDdsXbpuX3ZDIC-150" value="" style="shape=ext;double=1;rounded=0;whiteSpace=wrap;html=1;strokeWidth=3;" vertex="1" parent="1">
          <mxGeometry x="720" y="430" width="190" height="80" as="geometry" />
        </mxCell>
        <mxCell id="E9qOfvGDdsXbpuX3ZDIC-151" value="" style="shape=manualInput;whiteSpace=wrap;html=1;rotation=90;strokeWidth=3;" vertex="1" parent="1">
          <mxGeometry x="910" y="430" width="80" height="80" as="geometry" />
        </mxCell>
        <mxCell id="E9qOfvGDdsXbpuX3ZDIC-152" value="" style="ellipse;shape=doubleEllipse;whiteSpace=wrap;html=1;aspect=fixed;strokeWidth=3;" vertex="1" parent="1">
          <mxGeometry x="760" y="500" width="30" height="30" as="geometry" />
        </mxCell>
        <mxCell id="E9qOfvGDdsXbpuX3ZDIC-153" value="" style="ellipse;shape=doubleEllipse;whiteSpace=wrap;html=1;aspect=fixed;strokeWidth=3;" vertex="1" parent="1">
          <mxGeometry x="860" y="500" width="30" height="30" as="geometry" />
        </mxCell>
        <mxCell id="E9qOfvGDdsXbpuX3ZDIC-154" value="" style="shape=ext;double=1;rounded=0;whiteSpace=wrap;html=1;strokeWidth=3;" vertex="1" parent="1">
          <mxGeometry x="720" y="852.5" width="190" height="80" as="geometry" />
        </mxCell>
        <mxCell id="E9qOfvGDdsXbpuX3ZDIC-155" value="" style="shape=manualInput;whiteSpace=wrap;html=1;rotation=90;strokeWidth=3;" vertex="1" parent="1">
          <mxGeometry x="910" y="852.5" width="80" height="80" as="geometry" />
        </mxCell>
        <mxCell id="E9qOfvGDdsXbpuX3ZDIC-156" value="" style="ellipse;shape=doubleEllipse;whiteSpace=wrap;html=1;aspect=fixed;strokeWidth=3;" vertex="1" parent="1">
          <mxGeometry x="760" y="922.5" width="30" height="30" as="geometry" />
        </mxCell>
        <mxCell id="E9qOfvGDdsXbpuX3ZDIC-157" value="" style="ellipse;shape=doubleEllipse;whiteSpace=wrap;html=1;aspect=fixed;strokeWidth=3;" vertex="1" parent="1">
          <mxGeometry x="860" y="922.5" width="30" height="30" as="geometry" />
        </mxCell>
        <mxCell id="E9qOfvGDdsXbpuX3ZDIC-158" value="" style="shape=ext;double=1;rounded=0;whiteSpace=wrap;html=1;strokeWidth=3;" vertex="1" parent="1">
          <mxGeometry x="720" y="1265" width="190" height="80" as="geometry" />
        </mxCell>
        <mxCell id="E9qOfvGDdsXbpuX3ZDIC-159" value="" style="shape=manualInput;whiteSpace=wrap;html=1;rotation=90;strokeWidth=3;" vertex="1" parent="1">
          <mxGeometry x="910" y="1265" width="80" height="80" as="geometry" />
        </mxCell>
        <mxCell id="E9qOfvGDdsXbpuX3ZDIC-160" value="" style="ellipse;shape=doubleEllipse;whiteSpace=wrap;html=1;aspect=fixed;strokeWidth=3;" vertex="1" parent="1">
          <mxGeometry x="760" y="1335" width="30" height="30" as="geometry" />
        </mxCell>
        <mxCell id="E9qOfvGDdsXbpuX3ZDIC-161" value="" style="ellipse;shape=doubleEllipse;whiteSpace=wrap;html=1;aspect=fixed;strokeWidth=3;" vertex="1" parent="1">
          <mxGeometry x="860" y="1335" width="30" height="30" as="geometry" />
        </mxCell>
        <mxCell id="E9qOfvGDdsXbpuX3ZDIC-162" value="" style="shape=ext;double=1;rounded=0;whiteSpace=wrap;html=1;strokeWidth=3;" vertex="1" parent="1">
          <mxGeometry x="720" y="1715" width="190" height="80" as="geometry" />
        </mxCell>
        <mxCell id="E9qOfvGDdsXbpuX3ZDIC-163" value="" style="shape=manualInput;whiteSpace=wrap;html=1;rotation=90;strokeWidth=3;" vertex="1" parent="1">
          <mxGeometry x="910" y="1715" width="80" height="80" as="geometry" />
        </mxCell>
        <mxCell id="E9qOfvGDdsXbpuX3ZDIC-164" value="" style="ellipse;shape=doubleEllipse;whiteSpace=wrap;html=1;aspect=fixed;strokeWidth=3;" vertex="1" parent="1">
          <mxGeometry x="760" y="1785" width="30" height="30" as="geometry" />
        </mxCell>
        <mxCell id="E9qOfvGDdsXbpuX3ZDIC-165" value="" style="ellipse;shape=doubleEllipse;whiteSpace=wrap;html=1;aspect=fixed;strokeWidth=3;" vertex="1" parent="1">
          <mxGeometry x="860" y="1785" width="30" height="30" as="geometry" />
        </mxCell>
        <mxCell id="E9qOfvGDdsXbpuX3ZDIC-166" value="" style="shape=ext;double=1;rounded=0;whiteSpace=wrap;html=1;strokeWidth=3;" vertex="1" parent="1">
          <mxGeometry x="730" y="-320" width="190" height="80" as="geometry" />
        </mxCell>
        <mxCell id="E9qOfvGDdsXbpuX3ZDIC-269" style="edgeStyle=orthogonalEdgeStyle;rounded=0;orthogonalLoop=1;jettySize=auto;html=1;exitX=0.5;exitY=0;exitDx=0;exitDy=0;strokeWidth=3;" edge="1" parent="1" source="E9qOfvGDdsXbpuX3ZDIC-167">
          <mxGeometry relative="1" as="geometry">
            <mxPoint x="1130" y="-280.1999999999998" as="targetPoint" />
          </mxGeometry>
        </mxCell>
        <mxCell id="E9qOfvGDdsXbpuX3ZDIC-167" value="" style="shape=manualInput;whiteSpace=wrap;html=1;rotation=90;strokeWidth=3;" vertex="1" parent="1">
          <mxGeometry x="920" y="-320" width="80" height="80" as="geometry" />
        </mxCell>
        <mxCell id="E9qOfvGDdsXbpuX3ZDIC-168" value="" style="ellipse;shape=doubleEllipse;whiteSpace=wrap;html=1;aspect=fixed;strokeWidth=3;" vertex="1" parent="1">
          <mxGeometry x="770" y="-250" width="30" height="30" as="geometry" />
        </mxCell>
        <mxCell id="E9qOfvGDdsXbpuX3ZDIC-169" value="" style="ellipse;shape=doubleEllipse;whiteSpace=wrap;html=1;aspect=fixed;strokeWidth=3;" vertex="1" parent="1">
          <mxGeometry x="870" y="-250" width="30" height="30" as="geometry" />
        </mxCell>
        <mxCell id="E9qOfvGDdsXbpuX3ZDIC-170" value="" style="shape=ext;double=1;rounded=0;whiteSpace=wrap;html=1;strokeWidth=3;" vertex="1" parent="1">
          <mxGeometry x="730" y="80" width="190" height="80" as="geometry" />
        </mxCell>
        <mxCell id="E9qOfvGDdsXbpuX3ZDIC-270" style="edgeStyle=orthogonalEdgeStyle;rounded=0;orthogonalLoop=1;jettySize=auto;html=1;exitX=0.5;exitY=0;exitDx=0;exitDy=0;strokeWidth=3;" edge="1" parent="1" source="E9qOfvGDdsXbpuX3ZDIC-171">
          <mxGeometry relative="1" as="geometry">
            <mxPoint x="1120" y="119.80000000000018" as="targetPoint" />
          </mxGeometry>
        </mxCell>
        <mxCell id="E9qOfvGDdsXbpuX3ZDIC-171" value="" style="shape=manualInput;whiteSpace=wrap;html=1;rotation=90;strokeWidth=3;" vertex="1" parent="1">
          <mxGeometry x="920" y="80" width="80" height="80" as="geometry" />
        </mxCell>
        <mxCell id="E9qOfvGDdsXbpuX3ZDIC-172" value="" style="ellipse;shape=doubleEllipse;whiteSpace=wrap;html=1;aspect=fixed;strokeWidth=3;" vertex="1" parent="1">
          <mxGeometry x="770" y="150" width="30" height="30" as="geometry" />
        </mxCell>
        <mxCell id="E9qOfvGDdsXbpuX3ZDIC-173" value="" style="ellipse;shape=doubleEllipse;whiteSpace=wrap;html=1;aspect=fixed;strokeWidth=3;" vertex="1" parent="1">
          <mxGeometry x="870" y="150" width="30" height="30" as="geometry" />
        </mxCell>
        <mxCell id="E9qOfvGDdsXbpuX3ZDIC-174" value="" style="shape=ext;double=1;rounded=0;whiteSpace=wrap;html=1;strokeWidth=3;" vertex="1" parent="1">
          <mxGeometry x="730" y="440" width="190" height="80" as="geometry" />
        </mxCell>
        <mxCell id="E9qOfvGDdsXbpuX3ZDIC-175" value="" style="shape=manualInput;whiteSpace=wrap;html=1;rotation=90;strokeWidth=3;" vertex="1" parent="1">
          <mxGeometry x="920" y="440" width="80" height="80" as="geometry" />
        </mxCell>
        <mxCell id="E9qOfvGDdsXbpuX3ZDIC-176" value="" style="ellipse;shape=doubleEllipse;whiteSpace=wrap;html=1;aspect=fixed;strokeWidth=3;" vertex="1" parent="1">
          <mxGeometry x="770" y="510" width="30" height="30" as="geometry" />
        </mxCell>
        <mxCell id="E9qOfvGDdsXbpuX3ZDIC-177" value="" style="ellipse;shape=doubleEllipse;whiteSpace=wrap;html=1;aspect=fixed;strokeWidth=3;" vertex="1" parent="1">
          <mxGeometry x="870" y="510" width="30" height="30" as="geometry" />
        </mxCell>
        <mxCell id="E9qOfvGDdsXbpuX3ZDIC-178" value="" style="shape=ext;double=1;rounded=0;whiteSpace=wrap;html=1;strokeWidth=3;" vertex="1" parent="1">
          <mxGeometry x="730" y="862.5" width="190" height="80" as="geometry" />
        </mxCell>
        <mxCell id="E9qOfvGDdsXbpuX3ZDIC-272" style="edgeStyle=orthogonalEdgeStyle;rounded=0;orthogonalLoop=1;jettySize=auto;html=1;exitX=0.5;exitY=0;exitDx=0;exitDy=0;strokeWidth=3;" edge="1" parent="1" source="E9qOfvGDdsXbpuX3ZDIC-179">
          <mxGeometry relative="1" as="geometry">
            <mxPoint x="1130" y="902.1999999999998" as="targetPoint" />
          </mxGeometry>
        </mxCell>
        <mxCell id="E9qOfvGDdsXbpuX3ZDIC-179" value="" style="shape=manualInput;whiteSpace=wrap;html=1;rotation=90;strokeWidth=3;" vertex="1" parent="1">
          <mxGeometry x="920" y="862.5" width="80" height="80" as="geometry" />
        </mxCell>
        <mxCell id="E9qOfvGDdsXbpuX3ZDIC-180" value="" style="ellipse;shape=doubleEllipse;whiteSpace=wrap;html=1;aspect=fixed;strokeWidth=3;" vertex="1" parent="1">
          <mxGeometry x="770" y="932.5" width="30" height="30" as="geometry" />
        </mxCell>
        <mxCell id="E9qOfvGDdsXbpuX3ZDIC-181" value="" style="ellipse;shape=doubleEllipse;whiteSpace=wrap;html=1;aspect=fixed;strokeWidth=3;" vertex="1" parent="1">
          <mxGeometry x="870" y="932.5" width="30" height="30" as="geometry" />
        </mxCell>
        <mxCell id="E9qOfvGDdsXbpuX3ZDIC-182" value="" style="shape=ext;double=1;rounded=0;whiteSpace=wrap;html=1;strokeWidth=3;" vertex="1" parent="1">
          <mxGeometry x="730" y="1275" width="190" height="80" as="geometry" />
        </mxCell>
        <mxCell id="E9qOfvGDdsXbpuX3ZDIC-183" value="" style="shape=manualInput;whiteSpace=wrap;html=1;rotation=90;strokeWidth=3;" vertex="1" parent="1">
          <mxGeometry x="920" y="1275" width="80" height="80" as="geometry" />
        </mxCell>
        <mxCell id="E9qOfvGDdsXbpuX3ZDIC-184" value="" style="ellipse;shape=doubleEllipse;whiteSpace=wrap;html=1;aspect=fixed;strokeWidth=3;" vertex="1" parent="1">
          <mxGeometry x="770" y="1345" width="30" height="30" as="geometry" />
        </mxCell>
        <mxCell id="E9qOfvGDdsXbpuX3ZDIC-185" value="" style="ellipse;shape=doubleEllipse;whiteSpace=wrap;html=1;aspect=fixed;strokeWidth=3;" vertex="1" parent="1">
          <mxGeometry x="870" y="1345" width="30" height="30" as="geometry" />
        </mxCell>
        <mxCell id="E9qOfvGDdsXbpuX3ZDIC-186" value="" style="shape=ext;double=1;rounded=0;whiteSpace=wrap;html=1;strokeWidth=3;" vertex="1" parent="1">
          <mxGeometry x="730" y="1725" width="190" height="80" as="geometry" />
        </mxCell>
        <mxCell id="E9qOfvGDdsXbpuX3ZDIC-187" value="" style="shape=manualInput;whiteSpace=wrap;html=1;rotation=90;strokeWidth=3;" vertex="1" parent="1">
          <mxGeometry x="920" y="1725" width="80" height="80" as="geometry" />
        </mxCell>
        <mxCell id="E9qOfvGDdsXbpuX3ZDIC-188" value="" style="ellipse;shape=doubleEllipse;whiteSpace=wrap;html=1;aspect=fixed;strokeWidth=3;" vertex="1" parent="1">
          <mxGeometry x="770" y="1795" width="30" height="30" as="geometry" />
        </mxCell>
        <mxCell id="E9qOfvGDdsXbpuX3ZDIC-189" value="" style="ellipse;shape=doubleEllipse;whiteSpace=wrap;html=1;aspect=fixed;strokeWidth=3;" vertex="1" parent="1">
          <mxGeometry x="870" y="1795" width="30" height="30" as="geometry" />
        </mxCell>
        <mxCell id="E9qOfvGDdsXbpuX3ZDIC-190" value="" style="shape=ext;double=1;rounded=0;whiteSpace=wrap;html=1;strokeWidth=3;" vertex="1" parent="1">
          <mxGeometry x="1490" y="-355" width="190" height="80" as="geometry" />
        </mxCell>
        <mxCell id="E9qOfvGDdsXbpuX3ZDIC-191" value="" style="shape=manualInput;whiteSpace=wrap;html=1;rotation=90;strokeWidth=3;" vertex="1" parent="1">
          <mxGeometry x="1680" y="-355" width="80" height="80" as="geometry" />
        </mxCell>
        <mxCell id="E9qOfvGDdsXbpuX3ZDIC-192" value="" style="ellipse;shape=doubleEllipse;whiteSpace=wrap;html=1;aspect=fixed;strokeWidth=3;" vertex="1" parent="1">
          <mxGeometry x="1530" y="-285" width="30" height="30" as="geometry" />
        </mxCell>
        <mxCell id="E9qOfvGDdsXbpuX3ZDIC-193" value="" style="ellipse;shape=doubleEllipse;whiteSpace=wrap;html=1;aspect=fixed;strokeWidth=3;" vertex="1" parent="1">
          <mxGeometry x="1630" y="-285" width="30" height="30" as="geometry" />
        </mxCell>
        <mxCell id="E9qOfvGDdsXbpuX3ZDIC-194" value="" style="shape=ext;double=1;rounded=0;whiteSpace=wrap;html=1;strokeWidth=3;" vertex="1" parent="1">
          <mxGeometry x="1490" y="45" width="190" height="80" as="geometry" />
        </mxCell>
        <mxCell id="E9qOfvGDdsXbpuX3ZDIC-195" value="" style="shape=manualInput;whiteSpace=wrap;html=1;rotation=90;strokeWidth=3;" vertex="1" parent="1">
          <mxGeometry x="1680" y="45" width="80" height="80" as="geometry" />
        </mxCell>
        <mxCell id="E9qOfvGDdsXbpuX3ZDIC-196" value="" style="ellipse;shape=doubleEllipse;whiteSpace=wrap;html=1;aspect=fixed;strokeWidth=3;" vertex="1" parent="1">
          <mxGeometry x="1530" y="115" width="30" height="30" as="geometry" />
        </mxCell>
        <mxCell id="E9qOfvGDdsXbpuX3ZDIC-197" value="" style="ellipse;shape=doubleEllipse;whiteSpace=wrap;html=1;aspect=fixed;strokeWidth=3;" vertex="1" parent="1">
          <mxGeometry x="1630" y="115" width="30" height="30" as="geometry" />
        </mxCell>
        <mxCell id="E9qOfvGDdsXbpuX3ZDIC-198" value="" style="shape=ext;double=1;rounded=0;whiteSpace=wrap;html=1;strokeWidth=3;" vertex="1" parent="1">
          <mxGeometry x="1490" y="405" width="190" height="80" as="geometry" />
        </mxCell>
        <mxCell id="E9qOfvGDdsXbpuX3ZDIC-199" value="" style="shape=manualInput;whiteSpace=wrap;html=1;rotation=90;strokeWidth=3;" vertex="1" parent="1">
          <mxGeometry x="1680" y="405" width="80" height="80" as="geometry" />
        </mxCell>
        <mxCell id="E9qOfvGDdsXbpuX3ZDIC-200" value="" style="ellipse;shape=doubleEllipse;whiteSpace=wrap;html=1;aspect=fixed;strokeWidth=3;" vertex="1" parent="1">
          <mxGeometry x="1530" y="475" width="30" height="30" as="geometry" />
        </mxCell>
        <mxCell id="E9qOfvGDdsXbpuX3ZDIC-201" value="" style="ellipse;shape=doubleEllipse;whiteSpace=wrap;html=1;aspect=fixed;strokeWidth=3;" vertex="1" parent="1">
          <mxGeometry x="1630" y="475" width="30" height="30" as="geometry" />
        </mxCell>
        <mxCell id="E9qOfvGDdsXbpuX3ZDIC-202" value="" style="shape=ext;double=1;rounded=0;whiteSpace=wrap;html=1;strokeWidth=3;" vertex="1" parent="1">
          <mxGeometry x="1490" y="827.5" width="190" height="80" as="geometry" />
        </mxCell>
        <mxCell id="E9qOfvGDdsXbpuX3ZDIC-203" value="" style="shape=manualInput;whiteSpace=wrap;html=1;rotation=90;strokeWidth=3;" vertex="1" parent="1">
          <mxGeometry x="1680" y="827.5" width="80" height="80" as="geometry" />
        </mxCell>
        <mxCell id="E9qOfvGDdsXbpuX3ZDIC-204" value="" style="ellipse;shape=doubleEllipse;whiteSpace=wrap;html=1;aspect=fixed;strokeWidth=3;" vertex="1" parent="1">
          <mxGeometry x="1530" y="897.5" width="30" height="30" as="geometry" />
        </mxCell>
        <mxCell id="E9qOfvGDdsXbpuX3ZDIC-205" value="" style="ellipse;shape=doubleEllipse;whiteSpace=wrap;html=1;aspect=fixed;strokeWidth=3;" vertex="1" parent="1">
          <mxGeometry x="1630" y="897.5" width="30" height="30" as="geometry" />
        </mxCell>
        <mxCell id="E9qOfvGDdsXbpuX3ZDIC-206" value="" style="shape=ext;double=1;rounded=0;whiteSpace=wrap;html=1;strokeWidth=3;" vertex="1" parent="1">
          <mxGeometry x="1490" y="1240" width="190" height="80" as="geometry" />
        </mxCell>
        <mxCell id="E9qOfvGDdsXbpuX3ZDIC-207" value="" style="shape=manualInput;whiteSpace=wrap;html=1;rotation=90;strokeWidth=3;" vertex="1" parent="1">
          <mxGeometry x="1680" y="1240" width="80" height="80" as="geometry" />
        </mxCell>
        <mxCell id="E9qOfvGDdsXbpuX3ZDIC-208" value="" style="ellipse;shape=doubleEllipse;whiteSpace=wrap;html=1;aspect=fixed;strokeWidth=3;" vertex="1" parent="1">
          <mxGeometry x="1530" y="1310" width="30" height="30" as="geometry" />
        </mxCell>
        <mxCell id="E9qOfvGDdsXbpuX3ZDIC-209" value="" style="ellipse;shape=doubleEllipse;whiteSpace=wrap;html=1;aspect=fixed;strokeWidth=3;" vertex="1" parent="1">
          <mxGeometry x="1630" y="1310" width="30" height="30" as="geometry" />
        </mxCell>
        <mxCell id="E9qOfvGDdsXbpuX3ZDIC-210" value="" style="shape=ext;double=1;rounded=0;whiteSpace=wrap;html=1;strokeWidth=3;" vertex="1" parent="1">
          <mxGeometry x="1490" y="1690" width="190" height="80" as="geometry" />
        </mxCell>
        <mxCell id="E9qOfvGDdsXbpuX3ZDIC-211" value="" style="shape=manualInput;whiteSpace=wrap;html=1;rotation=90;strokeWidth=3;" vertex="1" parent="1">
          <mxGeometry x="1680" y="1690" width="80" height="80" as="geometry" />
        </mxCell>
        <mxCell id="E9qOfvGDdsXbpuX3ZDIC-212" value="" style="ellipse;shape=doubleEllipse;whiteSpace=wrap;html=1;aspect=fixed;strokeWidth=3;" vertex="1" parent="1">
          <mxGeometry x="1530" y="1760" width="30" height="30" as="geometry" />
        </mxCell>
        <mxCell id="E9qOfvGDdsXbpuX3ZDIC-213" value="" style="ellipse;shape=doubleEllipse;whiteSpace=wrap;html=1;aspect=fixed;strokeWidth=3;" vertex="1" parent="1">
          <mxGeometry x="1630" y="1760" width="30" height="30" as="geometry" />
        </mxCell>
        <mxCell id="E9qOfvGDdsXbpuX3ZDIC-214" value="" style="shape=ext;double=1;rounded=0;whiteSpace=wrap;html=1;strokeWidth=3;" vertex="1" parent="1">
          <mxGeometry x="1500" y="-345" width="190" height="80" as="geometry" />
        </mxCell>
        <mxCell id="E9qOfvGDdsXbpuX3ZDIC-215" value="" style="shape=manualInput;whiteSpace=wrap;html=1;rotation=90;strokeWidth=3;" vertex="1" parent="1">
          <mxGeometry x="1690" y="-345" width="80" height="80" as="geometry" />
        </mxCell>
        <mxCell id="E9qOfvGDdsXbpuX3ZDIC-216" value="" style="ellipse;shape=doubleEllipse;whiteSpace=wrap;html=1;aspect=fixed;strokeWidth=3;" vertex="1" parent="1">
          <mxGeometry x="1540" y="-275" width="30" height="30" as="geometry" />
        </mxCell>
        <mxCell id="E9qOfvGDdsXbpuX3ZDIC-217" value="" style="ellipse;shape=doubleEllipse;whiteSpace=wrap;html=1;aspect=fixed;strokeWidth=3;" vertex="1" parent="1">
          <mxGeometry x="1640" y="-275" width="30" height="30" as="geometry" />
        </mxCell>
        <mxCell id="E9qOfvGDdsXbpuX3ZDIC-218" value="" style="shape=ext;double=1;rounded=0;whiteSpace=wrap;html=1;strokeWidth=3;" vertex="1" parent="1">
          <mxGeometry x="1500" y="55" width="190" height="80" as="geometry" />
        </mxCell>
        <mxCell id="E9qOfvGDdsXbpuX3ZDIC-219" value="" style="shape=manualInput;whiteSpace=wrap;html=1;rotation=90;strokeWidth=3;" vertex="1" parent="1">
          <mxGeometry x="1690" y="55" width="80" height="80" as="geometry" />
        </mxCell>
        <mxCell id="E9qOfvGDdsXbpuX3ZDIC-220" value="" style="ellipse;shape=doubleEllipse;whiteSpace=wrap;html=1;aspect=fixed;strokeWidth=3;" vertex="1" parent="1">
          <mxGeometry x="1540" y="125" width="30" height="30" as="geometry" />
        </mxCell>
        <mxCell id="E9qOfvGDdsXbpuX3ZDIC-221" value="" style="ellipse;shape=doubleEllipse;whiteSpace=wrap;html=1;aspect=fixed;strokeWidth=3;" vertex="1" parent="1">
          <mxGeometry x="1640" y="125" width="30" height="30" as="geometry" />
        </mxCell>
        <mxCell id="E9qOfvGDdsXbpuX3ZDIC-222" value="" style="shape=ext;double=1;rounded=0;whiteSpace=wrap;html=1;strokeWidth=3;" vertex="1" parent="1">
          <mxGeometry x="1500" y="415" width="190" height="80" as="geometry" />
        </mxCell>
        <mxCell id="E9qOfvGDdsXbpuX3ZDIC-223" value="" style="shape=manualInput;whiteSpace=wrap;html=1;rotation=90;strokeWidth=3;" vertex="1" parent="1">
          <mxGeometry x="1690" y="415" width="80" height="80" as="geometry" />
        </mxCell>
        <mxCell id="E9qOfvGDdsXbpuX3ZDIC-224" value="" style="ellipse;shape=doubleEllipse;whiteSpace=wrap;html=1;aspect=fixed;strokeWidth=3;" vertex="1" parent="1">
          <mxGeometry x="1540" y="485" width="30" height="30" as="geometry" />
        </mxCell>
        <mxCell id="E9qOfvGDdsXbpuX3ZDIC-225" value="" style="ellipse;shape=doubleEllipse;whiteSpace=wrap;html=1;aspect=fixed;strokeWidth=3;" vertex="1" parent="1">
          <mxGeometry x="1640" y="485" width="30" height="30" as="geometry" />
        </mxCell>
        <mxCell id="E9qOfvGDdsXbpuX3ZDIC-226" value="" style="shape=ext;double=1;rounded=0;whiteSpace=wrap;html=1;strokeWidth=3;" vertex="1" parent="1">
          <mxGeometry x="1500" y="837.5" width="190" height="80" as="geometry" />
        </mxCell>
        <mxCell id="E9qOfvGDdsXbpuX3ZDIC-227" value="" style="shape=manualInput;whiteSpace=wrap;html=1;rotation=90;strokeWidth=3;" vertex="1" parent="1">
          <mxGeometry x="1690" y="837.5" width="80" height="80" as="geometry" />
        </mxCell>
        <mxCell id="E9qOfvGDdsXbpuX3ZDIC-228" value="" style="ellipse;shape=doubleEllipse;whiteSpace=wrap;html=1;aspect=fixed;strokeWidth=3;" vertex="1" parent="1">
          <mxGeometry x="1540" y="907.5" width="30" height="30" as="geometry" />
        </mxCell>
        <mxCell id="E9qOfvGDdsXbpuX3ZDIC-229" value="" style="ellipse;shape=doubleEllipse;whiteSpace=wrap;html=1;aspect=fixed;strokeWidth=3;" vertex="1" parent="1">
          <mxGeometry x="1640" y="907.5" width="30" height="30" as="geometry" />
        </mxCell>
        <mxCell id="E9qOfvGDdsXbpuX3ZDIC-230" value="" style="shape=ext;double=1;rounded=0;whiteSpace=wrap;html=1;strokeWidth=3;" vertex="1" parent="1">
          <mxGeometry x="1500" y="1250" width="190" height="80" as="geometry" />
        </mxCell>
        <mxCell id="E9qOfvGDdsXbpuX3ZDIC-231" value="" style="shape=manualInput;whiteSpace=wrap;html=1;rotation=90;strokeWidth=3;" vertex="1" parent="1">
          <mxGeometry x="1690" y="1250" width="80" height="80" as="geometry" />
        </mxCell>
        <mxCell id="E9qOfvGDdsXbpuX3ZDIC-232" value="" style="ellipse;shape=doubleEllipse;whiteSpace=wrap;html=1;aspect=fixed;strokeWidth=3;" vertex="1" parent="1">
          <mxGeometry x="1540" y="1320" width="30" height="30" as="geometry" />
        </mxCell>
        <mxCell id="E9qOfvGDdsXbpuX3ZDIC-233" value="" style="ellipse;shape=doubleEllipse;whiteSpace=wrap;html=1;aspect=fixed;strokeWidth=3;" vertex="1" parent="1">
          <mxGeometry x="1640" y="1320" width="30" height="30" as="geometry" />
        </mxCell>
        <mxCell id="E9qOfvGDdsXbpuX3ZDIC-234" value="" style="shape=ext;double=1;rounded=0;whiteSpace=wrap;html=1;strokeWidth=3;" vertex="1" parent="1">
          <mxGeometry x="1500" y="1700" width="190" height="80" as="geometry" />
        </mxCell>
        <mxCell id="E9qOfvGDdsXbpuX3ZDIC-235" value="" style="shape=manualInput;whiteSpace=wrap;html=1;rotation=90;strokeWidth=3;" vertex="1" parent="1">
          <mxGeometry x="1690" y="1700" width="80" height="80" as="geometry" />
        </mxCell>
        <mxCell id="E9qOfvGDdsXbpuX3ZDIC-236" value="" style="ellipse;shape=doubleEllipse;whiteSpace=wrap;html=1;aspect=fixed;strokeWidth=3;" vertex="1" parent="1">
          <mxGeometry x="1540" y="1770" width="30" height="30" as="geometry" />
        </mxCell>
        <mxCell id="E9qOfvGDdsXbpuX3ZDIC-237" value="" style="ellipse;shape=doubleEllipse;whiteSpace=wrap;html=1;aspect=fixed;strokeWidth=3;" vertex="1" parent="1">
          <mxGeometry x="1640" y="1770" width="30" height="30" as="geometry" />
        </mxCell>
        <mxCell id="E9qOfvGDdsXbpuX3ZDIC-238" value="" style="shape=ext;double=1;rounded=0;whiteSpace=wrap;html=1;strokeWidth=3;" vertex="1" parent="1">
          <mxGeometry x="1510" y="-335" width="190" height="80" as="geometry" />
        </mxCell>
        <mxCell id="E9qOfvGDdsXbpuX3ZDIC-239" value="" style="shape=manualInput;whiteSpace=wrap;html=1;rotation=90;strokeWidth=3;" vertex="1" parent="1">
          <mxGeometry x="1700" y="-335" width="80" height="80" as="geometry" />
        </mxCell>
        <mxCell id="E9qOfvGDdsXbpuX3ZDIC-240" value="" style="ellipse;shape=doubleEllipse;whiteSpace=wrap;html=1;aspect=fixed;strokeWidth=3;" vertex="1" parent="1">
          <mxGeometry x="1550" y="-265" width="30" height="30" as="geometry" />
        </mxCell>
        <mxCell id="E9qOfvGDdsXbpuX3ZDIC-241" value="" style="ellipse;shape=doubleEllipse;whiteSpace=wrap;html=1;aspect=fixed;strokeWidth=3;" vertex="1" parent="1">
          <mxGeometry x="1650" y="-265" width="30" height="30" as="geometry" />
        </mxCell>
        <mxCell id="E9qOfvGDdsXbpuX3ZDIC-242" value="" style="shape=ext;double=1;rounded=0;whiteSpace=wrap;html=1;strokeWidth=3;" vertex="1" parent="1">
          <mxGeometry x="1510" y="65" width="190" height="80" as="geometry" />
        </mxCell>
        <mxCell id="E9qOfvGDdsXbpuX3ZDIC-297" style="edgeStyle=orthogonalEdgeStyle;rounded=0;orthogonalLoop=1;jettySize=auto;html=1;exitX=0.5;exitY=0;exitDx=0;exitDy=0;entryX=-0.001;entryY=0.638;entryDx=0;entryDy=0;entryPerimeter=0;strokeWidth=3;" edge="1" parent="1" source="E9qOfvGDdsXbpuX3ZDIC-243" target="E9qOfvGDdsXbpuX3ZDIC-42">
          <mxGeometry relative="1" as="geometry">
            <mxPoint x="1900" y="104.85714285714266" as="targetPoint" />
          </mxGeometry>
        </mxCell>
        <mxCell id="E9qOfvGDdsXbpuX3ZDIC-243" value="" style="shape=manualInput;whiteSpace=wrap;html=1;rotation=90;strokeWidth=3;" vertex="1" parent="1">
          <mxGeometry x="1700" y="65" width="80" height="80" as="geometry" />
        </mxCell>
        <mxCell id="E9qOfvGDdsXbpuX3ZDIC-244" value="" style="ellipse;shape=doubleEllipse;whiteSpace=wrap;html=1;aspect=fixed;strokeWidth=3;" vertex="1" parent="1">
          <mxGeometry x="1550" y="135" width="30" height="30" as="geometry" />
        </mxCell>
        <mxCell id="E9qOfvGDdsXbpuX3ZDIC-245" value="" style="ellipse;shape=doubleEllipse;whiteSpace=wrap;html=1;aspect=fixed;strokeWidth=3;" vertex="1" parent="1">
          <mxGeometry x="1650" y="135" width="30" height="30" as="geometry" />
        </mxCell>
        <mxCell id="E9qOfvGDdsXbpuX3ZDIC-246" value="" style="shape=ext;double=1;rounded=0;whiteSpace=wrap;html=1;strokeWidth=3;" vertex="1" parent="1">
          <mxGeometry x="1510" y="425" width="190" height="80" as="geometry" />
        </mxCell>
        <mxCell id="E9qOfvGDdsXbpuX3ZDIC-247" value="" style="shape=manualInput;whiteSpace=wrap;html=1;rotation=90;strokeWidth=3;" vertex="1" parent="1">
          <mxGeometry x="1700" y="425" width="80" height="80" as="geometry" />
        </mxCell>
        <mxCell id="E9qOfvGDdsXbpuX3ZDIC-248" value="" style="ellipse;shape=doubleEllipse;whiteSpace=wrap;html=1;aspect=fixed;strokeWidth=3;" vertex="1" parent="1">
          <mxGeometry x="1550" y="495" width="30" height="30" as="geometry" />
        </mxCell>
        <mxCell id="E9qOfvGDdsXbpuX3ZDIC-249" value="" style="ellipse;shape=doubleEllipse;whiteSpace=wrap;html=1;aspect=fixed;strokeWidth=3;" vertex="1" parent="1">
          <mxGeometry x="1650" y="495" width="30" height="30" as="geometry" />
        </mxCell>
        <mxCell id="E9qOfvGDdsXbpuX3ZDIC-250" value="" style="shape=ext;double=1;rounded=0;whiteSpace=wrap;html=1;strokeWidth=3;" vertex="1" parent="1">
          <mxGeometry x="1510" y="847.5" width="190" height="80" as="geometry" />
        </mxCell>
        <mxCell id="E9qOfvGDdsXbpuX3ZDIC-251" value="" style="shape=manualInput;whiteSpace=wrap;html=1;rotation=90;strokeWidth=3;" vertex="1" parent="1">
          <mxGeometry x="1700" y="847.5" width="80" height="80" as="geometry" />
        </mxCell>
        <mxCell id="E9qOfvGDdsXbpuX3ZDIC-252" value="" style="ellipse;shape=doubleEllipse;whiteSpace=wrap;html=1;aspect=fixed;strokeWidth=3;" vertex="1" parent="1">
          <mxGeometry x="1550" y="917.5" width="30" height="30" as="geometry" />
        </mxCell>
        <mxCell id="E9qOfvGDdsXbpuX3ZDIC-253" value="" style="ellipse;shape=doubleEllipse;whiteSpace=wrap;html=1;aspect=fixed;strokeWidth=3;" vertex="1" parent="1">
          <mxGeometry x="1650" y="917.5" width="30" height="30" as="geometry" />
        </mxCell>
        <mxCell id="E9qOfvGDdsXbpuX3ZDIC-254" value="" style="shape=ext;double=1;rounded=0;whiteSpace=wrap;html=1;strokeWidth=3;" vertex="1" parent="1">
          <mxGeometry x="1510" y="1260" width="190" height="80" as="geometry" />
        </mxCell>
        <mxCell id="E9qOfvGDdsXbpuX3ZDIC-255" value="" style="shape=manualInput;whiteSpace=wrap;html=1;rotation=90;strokeWidth=3;" vertex="1" parent="1">
          <mxGeometry x="1700" y="1260" width="80" height="80" as="geometry" />
        </mxCell>
        <mxCell id="E9qOfvGDdsXbpuX3ZDIC-256" value="" style="ellipse;shape=doubleEllipse;whiteSpace=wrap;html=1;aspect=fixed;strokeWidth=3;" vertex="1" parent="1">
          <mxGeometry x="1550" y="1330" width="30" height="30" as="geometry" />
        </mxCell>
        <mxCell id="E9qOfvGDdsXbpuX3ZDIC-257" value="" style="ellipse;shape=doubleEllipse;whiteSpace=wrap;html=1;aspect=fixed;strokeWidth=3;" vertex="1" parent="1">
          <mxGeometry x="1650" y="1330" width="30" height="30" as="geometry" />
        </mxCell>
        <mxCell id="E9qOfvGDdsXbpuX3ZDIC-258" value="" style="shape=ext;double=1;rounded=0;whiteSpace=wrap;html=1;strokeWidth=3;" vertex="1" parent="1">
          <mxGeometry x="1510" y="1710" width="190" height="80" as="geometry" />
        </mxCell>
        <mxCell id="E9qOfvGDdsXbpuX3ZDIC-259" value="" style="shape=manualInput;whiteSpace=wrap;html=1;rotation=90;strokeWidth=3;" vertex="1" parent="1">
          <mxGeometry x="1700" y="1710" width="80" height="80" as="geometry" />
        </mxCell>
        <mxCell id="E9qOfvGDdsXbpuX3ZDIC-260" value="" style="ellipse;shape=doubleEllipse;whiteSpace=wrap;html=1;aspect=fixed;strokeWidth=3;" vertex="1" parent="1">
          <mxGeometry x="1550" y="1780" width="30" height="30" as="geometry" />
        </mxCell>
        <mxCell id="E9qOfvGDdsXbpuX3ZDIC-261" value="" style="ellipse;shape=doubleEllipse;whiteSpace=wrap;html=1;aspect=fixed;strokeWidth=3;" vertex="1" parent="1">
          <mxGeometry x="1650" y="1780" width="30" height="30" as="geometry" />
        </mxCell>
        <mxCell id="E9qOfvGDdsXbpuX3ZDIC-271" style="edgeStyle=orthogonalEdgeStyle;rounded=0;orthogonalLoop=1;jettySize=auto;html=1;exitX=0.5;exitY=0;exitDx=0;exitDy=0;entryX=0.017;entryY=0.638;entryDx=0;entryDy=0;entryPerimeter=0;strokeWidth=3;" edge="1" parent="1" source="E9qOfvGDdsXbpuX3ZDIC-175" target="E9qOfvGDdsXbpuX3ZDIC-33">
          <mxGeometry relative="1" as="geometry" />
        </mxCell>
        <mxCell id="E9qOfvGDdsXbpuX3ZDIC-273" style="edgeStyle=orthogonalEdgeStyle;rounded=0;orthogonalLoop=1;jettySize=auto;html=1;exitX=0.5;exitY=0;exitDx=0;exitDy=0;entryX=0;entryY=0.62;entryDx=0;entryDy=0;entryPerimeter=0;strokeWidth=3;" edge="1" parent="1" source="E9qOfvGDdsXbpuX3ZDIC-183" target="E9qOfvGDdsXbpuX3ZDIC-40">
          <mxGeometry relative="1" as="geometry" />
        </mxCell>
        <mxCell id="E9qOfvGDdsXbpuX3ZDIC-274" style="edgeStyle=orthogonalEdgeStyle;rounded=0;orthogonalLoop=1;jettySize=auto;html=1;exitX=0.5;exitY=0;exitDx=0;exitDy=0;entryX=-0.024;entryY=0.619;entryDx=0;entryDy=0;entryPerimeter=0;strokeWidth=3;" edge="1" parent="1" source="E9qOfvGDdsXbpuX3ZDIC-187" target="E9qOfvGDdsXbpuX3ZDIC-41">
          <mxGeometry relative="1" as="geometry" />
        </mxCell>
        <mxCell id="E9qOfvGDdsXbpuX3ZDIC-276" style="edgeStyle=orthogonalEdgeStyle;rounded=0;orthogonalLoop=1;jettySize=auto;html=1;exitX=1;exitY=0.5;exitDx=0;exitDy=0;exitPerimeter=0;entryX=-0.012;entryY=0.574;entryDx=0;entryDy=0;entryPerimeter=0;strokeWidth=3;" edge="1" parent="1" source="E9qOfvGDdsXbpuX3ZDIC-40" target="E9qOfvGDdsXbpuX3ZDIC-206">
          <mxGeometry relative="1" as="geometry" />
        </mxCell>
        <mxCell id="E9qOfvGDdsXbpuX3ZDIC-277" style="edgeStyle=orthogonalEdgeStyle;rounded=0;orthogonalLoop=1;jettySize=auto;html=1;exitX=1;exitY=0;exitDx=0;exitDy=180;exitPerimeter=0;entryX=0.005;entryY=0.917;entryDx=0;entryDy=0;entryPerimeter=0;strokeWidth=3;" edge="1" parent="1" source="E9qOfvGDdsXbpuX3ZDIC-39" target="E9qOfvGDdsXbpuX3ZDIC-202">
          <mxGeometry relative="1" as="geometry" />
        </mxCell>
        <mxCell id="E9qOfvGDdsXbpuX3ZDIC-292" style="edgeStyle=orthogonalEdgeStyle;rounded=0;orthogonalLoop=1;jettySize=auto;html=1;exitX=1;exitY=0.5;exitDx=0;exitDy=0;entryX=0;entryY=0.853;entryDx=0;entryDy=0;entryPerimeter=0;strokeWidth=3;" edge="1" parent="1" source="E9qOfvGDdsXbpuX3ZDIC-56" target="E9qOfvGDdsXbpuX3ZDIC-64">
          <mxGeometry relative="1" as="geometry">
            <Array as="points">
              <mxPoint x="2405" y="1285" />
              <mxPoint x="2405" y="1040" />
            </Array>
          </mxGeometry>
        </mxCell>
        <mxCell id="E9qOfvGDdsXbpuX3ZDIC-293" style="edgeStyle=orthogonalEdgeStyle;rounded=0;orthogonalLoop=1;jettySize=auto;html=1;exitX=1;exitY=0.5;exitDx=0;exitDy=0;entryX=0.016;entryY=0.165;entryDx=0;entryDy=0;entryPerimeter=0;strokeWidth=3;" edge="1" parent="1" source="E9qOfvGDdsXbpuX3ZDIC-42" target="E9qOfvGDdsXbpuX3ZDIC-64">
          <mxGeometry relative="1" as="geometry" />
        </mxCell>
        <mxCell id="E9qOfvGDdsXbpuX3ZDIC-295" style="edgeStyle=orthogonalEdgeStyle;rounded=0;orthogonalLoop=1;jettySize=auto;html=1;exitX=1;exitY=0.5;exitDx=0;exitDy=0;entryX=0.029;entryY=0.694;entryDx=0;entryDy=0;entryPerimeter=0;strokeWidth=3;" edge="1" parent="1" source="E9qOfvGDdsXbpuX3ZDIC-53" target="E9qOfvGDdsXbpuX3ZDIC-64">
          <mxGeometry relative="1" as="geometry" />
        </mxCell>
        <mxCell id="E9qOfvGDdsXbpuX3ZDIC-296" style="edgeStyle=orthogonalEdgeStyle;rounded=0;orthogonalLoop=1;jettySize=auto;html=1;exitX=0.5;exitY=0;exitDx=0;exitDy=0;entryX=-0.002;entryY=0.641;entryDx=0;entryDy=0;entryPerimeter=0;strokeWidth=3;" edge="1" parent="1" source="E9qOfvGDdsXbpuX3ZDIC-239" target="E9qOfvGDdsXbpuX3ZDIC-71">
          <mxGeometry relative="1" as="geometry" />
        </mxCell>
        <mxCell id="E9qOfvGDdsXbpuX3ZDIC-298" style="edgeStyle=orthogonalEdgeStyle;rounded=0;orthogonalLoop=1;jettySize=auto;html=1;exitX=0.5;exitY=0;exitDx=0;exitDy=0;entryX=-0.018;entryY=0.595;entryDx=0;entryDy=0;entryPerimeter=0;strokeWidth=3;" edge="1" parent="1" source="E9qOfvGDdsXbpuX3ZDIC-247" target="E9qOfvGDdsXbpuX3ZDIC-48">
          <mxGeometry relative="1" as="geometry" />
        </mxCell>
        <mxCell id="E9qOfvGDdsXbpuX3ZDIC-299" style="edgeStyle=orthogonalEdgeStyle;rounded=0;orthogonalLoop=1;jettySize=auto;html=1;exitX=0.5;exitY=0;exitDx=0;exitDy=0;entryX=-0.002;entryY=0.653;entryDx=0;entryDy=0;entryPerimeter=0;strokeWidth=3;" edge="1" parent="1" source="E9qOfvGDdsXbpuX3ZDIC-251" target="E9qOfvGDdsXbpuX3ZDIC-52">
          <mxGeometry relative="1" as="geometry" />
        </mxCell>
        <mxCell id="E9qOfvGDdsXbpuX3ZDIC-300" style="edgeStyle=orthogonalEdgeStyle;rounded=0;orthogonalLoop=1;jettySize=auto;html=1;exitX=0.5;exitY=0;exitDx=0;exitDy=0;entryX=-0.015;entryY=0.568;entryDx=0;entryDy=0;entryPerimeter=0;strokeWidth=3;" edge="1" parent="1" source="E9qOfvGDdsXbpuX3ZDIC-255" target="E9qOfvGDdsXbpuX3ZDIC-56">
          <mxGeometry relative="1" as="geometry" />
        </mxCell>
        <mxCell id="E9qOfvGDdsXbpuX3ZDIC-301" style="edgeStyle=orthogonalEdgeStyle;rounded=0;orthogonalLoop=1;jettySize=auto;html=1;exitX=0.5;exitY=0;exitDx=0;exitDy=0;entryX=0.002;entryY=0.526;entryDx=0;entryDy=0;entryPerimeter=0;strokeWidth=3;" edge="1" parent="1" source="E9qOfvGDdsXbpuX3ZDIC-259" target="E9qOfvGDdsXbpuX3ZDIC-60">
          <mxGeometry relative="1" as="geometry" />
        </mxCell>
        <mxCell id="E9qOfvGDdsXbpuX3ZDIC-302" style="edgeStyle=orthogonalEdgeStyle;rounded=0;orthogonalLoop=1;jettySize=auto;html=1;exitX=0.5;exitY=0;exitDx=0;exitDy=0;entryX=0.31;entryY=0.8;entryDx=0;entryDy=0;entryPerimeter=0;strokeWidth=3;" edge="1" parent="1" source="E9qOfvGDdsXbpuX3ZDIC-71" target="E9qOfvGDdsXbpuX3ZDIC-80">
          <mxGeometry relative="1" as="geometry" />
        </mxCell>
        <mxCell id="E9qOfvGDdsXbpuX3ZDIC-303" style="edgeStyle=orthogonalEdgeStyle;rounded=0;orthogonalLoop=1;jettySize=auto;html=1;exitX=1;exitY=0.5;exitDx=0;exitDy=0;entryX=0.364;entryY=0.883;entryDx=0;entryDy=0;entryPerimeter=0;strokeWidth=3;" edge="1" parent="1" source="E9qOfvGDdsXbpuX3ZDIC-42" target="E9qOfvGDdsXbpuX3ZDIC-80">
          <mxGeometry relative="1" as="geometry" />
        </mxCell>
        <mxCell id="E9qOfvGDdsXbpuX3ZDIC-304" style="edgeStyle=orthogonalEdgeStyle;rounded=0;orthogonalLoop=1;jettySize=auto;html=1;exitX=1;exitY=0.25;exitDx=0;exitDy=0;entryX=0.389;entryY=0.895;entryDx=0;entryDy=0;entryPerimeter=0;strokeWidth=3;" edge="1" parent="1" source="E9qOfvGDdsXbpuX3ZDIC-48" target="E9qOfvGDdsXbpuX3ZDIC-80">
          <mxGeometry relative="1" as="geometry" />
        </mxCell>
        <mxCell id="E9qOfvGDdsXbpuX3ZDIC-326" style="edgeStyle=orthogonalEdgeStyle;rounded=0;orthogonalLoop=1;jettySize=auto;html=1;exitX=0.875;exitY=0.5;exitDx=0;exitDy=0;exitPerimeter=0;dashed=1;strokeWidth=3;fillColor=#fa6800;strokeColor=#C73500;" edge="1" parent="1" source="E9qOfvGDdsXbpuX3ZDIC-305" target="E9qOfvGDdsXbpuX3ZDIC-17">
          <mxGeometry relative="1" as="geometry">
            <Array as="points">
              <mxPoint x="3090" y="2520" />
              <mxPoint x="3090" y="3920" />
              <mxPoint x="140" y="3920" />
              <mxPoint x="140" y="865" />
            </Array>
          </mxGeometry>
        </mxCell>
        <mxCell id="E9qOfvGDdsXbpuX3ZDIC-305" value="&lt;font style=&quot;font-size: 48px;&quot;&gt;Emissions&lt;/font&gt;" style="ellipse;shape=cloud;whiteSpace=wrap;html=1;strokeWidth=3;fillColor=#cce5ff;strokeColor=#36393d;sketch=1;curveFitting=1;jiggle=2;shadow=1;" vertex="1" parent="1">
          <mxGeometry x="1860" y="2110" width="1050" height="820" as="geometry" />
        </mxCell>
        <mxCell id="E9qOfvGDdsXbpuX3ZDIC-306" style="edgeStyle=orthogonalEdgeStyle;rounded=0;orthogonalLoop=1;jettySize=auto;html=1;exitX=0.5;exitY=1;exitDx=0;exitDy=0;entryX=0.07;entryY=0.4;entryDx=0;entryDy=0;entryPerimeter=0;strokeWidth=3;" edge="1" parent="1" source="E9qOfvGDdsXbpuX3ZDIC-60" target="E9qOfvGDdsXbpuX3ZDIC-305">
          <mxGeometry relative="1" as="geometry">
            <Array as="points">
              <mxPoint x="2020" y="1940" />
              <mxPoint x="1934" y="1940" />
            </Array>
          </mxGeometry>
        </mxCell>
        <mxCell id="E9qOfvGDdsXbpuX3ZDIC-307" style="edgeStyle=orthogonalEdgeStyle;rounded=0;orthogonalLoop=1;jettySize=auto;html=1;exitX=0.5;exitY=1;exitDx=0;exitDy=0;entryX=0.4;entryY=0.1;entryDx=0;entryDy=0;entryPerimeter=0;strokeWidth=3;" edge="1" parent="1" source="E9qOfvGDdsXbpuX3ZDIC-56" target="E9qOfvGDdsXbpuX3ZDIC-305">
          <mxGeometry relative="1" as="geometry">
            <Array as="points">
              <mxPoint x="2010" y="1520" />
              <mxPoint x="2280" y="1520" />
            </Array>
          </mxGeometry>
        </mxCell>
        <mxCell id="E9qOfvGDdsXbpuX3ZDIC-308" style="edgeStyle=orthogonalEdgeStyle;rounded=0;orthogonalLoop=1;jettySize=auto;html=1;exitX=1;exitY=0.5;exitDx=0;exitDy=0;entryX=0.434;entryY=0.119;entryDx=0;entryDy=0;entryPerimeter=0;strokeWidth=3;" edge="1" parent="1" source="E9qOfvGDdsXbpuX3ZDIC-52" target="E9qOfvGDdsXbpuX3ZDIC-305">
          <mxGeometry relative="1" as="geometry" />
        </mxCell>
        <mxCell id="E9qOfvGDdsXbpuX3ZDIC-309" style="edgeStyle=orthogonalEdgeStyle;rounded=0;orthogonalLoop=1;jettySize=auto;html=1;exitX=0.5;exitY=1;exitDx=0;exitDy=0;entryX=0.13;entryY=0.77;entryDx=0;entryDy=0;entryPerimeter=0;strokeWidth=3;" edge="1" parent="1" source="E9qOfvGDdsXbpuX3ZDIC-258" target="E9qOfvGDdsXbpuX3ZDIC-305">
          <mxGeometry relative="1" as="geometry">
            <Array as="points">
              <mxPoint x="1605" y="2831" />
            </Array>
          </mxGeometry>
        </mxCell>
        <mxCell id="E9qOfvGDdsXbpuX3ZDIC-310" style="edgeStyle=orthogonalEdgeStyle;rounded=0;orthogonalLoop=1;jettySize=auto;html=1;exitX=0;exitY=1;exitDx=0;exitDy=0;entryX=0.402;entryY=0.912;entryDx=0;entryDy=0;entryPerimeter=0;strokeWidth=3;" edge="1" parent="1" source="E9qOfvGDdsXbpuX3ZDIC-254" target="E9qOfvGDdsXbpuX3ZDIC-305">
          <mxGeometry relative="1" as="geometry">
            <Array as="points">
              <mxPoint x="1350" y="1340" />
              <mxPoint x="1350" y="2948" />
            </Array>
          </mxGeometry>
        </mxCell>
        <mxCell id="E9qOfvGDdsXbpuX3ZDIC-311" style="edgeStyle=orthogonalEdgeStyle;rounded=0;orthogonalLoop=1;jettySize=auto;html=1;exitX=0;exitY=0.5;exitDx=0;exitDy=0;entryX=0.262;entryY=0.838;entryDx=0;entryDy=0;entryPerimeter=0;strokeWidth=3;" edge="1" parent="1" source="E9qOfvGDdsXbpuX3ZDIC-202" target="E9qOfvGDdsXbpuX3ZDIC-305">
          <mxGeometry relative="1" as="geometry">
            <Array as="points">
              <mxPoint x="1470" y="868" />
              <mxPoint x="1470" y="2887" />
            </Array>
          </mxGeometry>
        </mxCell>
        <mxCell id="E9qOfvGDdsXbpuX3ZDIC-312" style="edgeStyle=orthogonalEdgeStyle;rounded=0;orthogonalLoop=1;jettySize=auto;html=1;exitX=0.75;exitY=0;exitDx=0;exitDy=0;entryX=0.25;entryY=0.25;entryDx=0;entryDy=0;entryPerimeter=0;strokeWidth=3;" edge="1" parent="1" source="E9qOfvGDdsXbpuX3ZDIC-238" target="E9qOfvGDdsXbpuX3ZDIC-80">
          <mxGeometry relative="1" as="geometry">
            <Array as="points">
              <mxPoint x="1640" y="-335" />
              <mxPoint x="1640" y="-1245" />
            </Array>
          </mxGeometry>
        </mxCell>
        <mxCell id="E9qOfvGDdsXbpuX3ZDIC-313" style="edgeStyle=orthogonalEdgeStyle;rounded=0;orthogonalLoop=1;jettySize=auto;html=1;exitX=0;exitY=0.25;exitDx=0;exitDy=0;entryX=0.678;entryY=0.188;entryDx=0;entryDy=0;entryPerimeter=0;strokeWidth=3;" edge="1" parent="1" source="E9qOfvGDdsXbpuX3ZDIC-218" target="E9qOfvGDdsXbpuX3ZDIC-80">
          <mxGeometry relative="1" as="geometry">
            <Array as="points">
              <mxPoint x="1410" y="75" />
              <mxPoint x="1410" y="-1296" />
            </Array>
          </mxGeometry>
        </mxCell>
        <mxCell id="E9qOfvGDdsXbpuX3ZDIC-314" style="edgeStyle=orthogonalEdgeStyle;rounded=0;orthogonalLoop=1;jettySize=auto;html=1;exitX=0;exitY=0;exitDx=0;exitDy=0;entryX=0.47;entryY=0.103;entryDx=0;entryDy=0;entryPerimeter=0;strokeWidth=3;" edge="1" parent="1" source="E9qOfvGDdsXbpuX3ZDIC-246" target="E9qOfvGDdsXbpuX3ZDIC-80">
          <mxGeometry relative="1" as="geometry">
            <Array as="points">
              <mxPoint x="1360" y="425" />
              <mxPoint x="1360" y="-1377" />
              <mxPoint x="2273" y="-1377" />
            </Array>
          </mxGeometry>
        </mxCell>
        <mxCell id="E9qOfvGDdsXbpuX3ZDIC-315" style="edgeStyle=orthogonalEdgeStyle;rounded=0;orthogonalLoop=1;jettySize=auto;html=1;exitX=0.5;exitY=0;exitDx=0;exitDy=0;entryX=0.144;entryY=0.577;entryDx=0;entryDy=0;entryPerimeter=0;strokeWidth=3;" edge="1" parent="1" source="E9qOfvGDdsXbpuX3ZDIC-166" target="E9qOfvGDdsXbpuX3ZDIC-80">
          <mxGeometry relative="1" as="geometry">
            <Array as="points">
              <mxPoint x="825" y="-977" />
            </Array>
          </mxGeometry>
        </mxCell>
        <mxCell id="E9qOfvGDdsXbpuX3ZDIC-317" style="edgeStyle=orthogonalEdgeStyle;rounded=0;orthogonalLoop=1;jettySize=auto;html=1;exitX=0;exitY=0.5;exitDx=0;exitDy=0;entryX=0.13;entryY=0.77;entryDx=0;entryDy=0;entryPerimeter=0;strokeWidth=3;" edge="1" parent="1" source="E9qOfvGDdsXbpuX3ZDIC-171" target="E9qOfvGDdsXbpuX3ZDIC-80">
          <mxGeometry relative="1" as="geometry">
            <Array as="points">
              <mxPoint x="1020" y="80" />
              <mxPoint x="1020" y="-850" />
              <mxPoint x="1917" y="-850" />
            </Array>
          </mxGeometry>
        </mxCell>
        <mxCell id="E9qOfvGDdsXbpuX3ZDIC-318" style="edgeStyle=orthogonalEdgeStyle;rounded=0;orthogonalLoop=1;jettySize=auto;html=1;exitX=0;exitY=0.25;exitDx=0;exitDy=0;entryX=0.13;entryY=0.77;entryDx=0;entryDy=0;entryPerimeter=0;strokeWidth=3;" edge="1" parent="1" source="E9qOfvGDdsXbpuX3ZDIC-175" target="E9qOfvGDdsXbpuX3ZDIC-80">
          <mxGeometry relative="1" as="geometry">
            <Array as="points">
              <mxPoint x="1080" y="440" />
              <mxPoint x="1080" y="-670" />
              <mxPoint x="1917" y="-670" />
            </Array>
          </mxGeometry>
        </mxCell>
        <mxCell id="E9qOfvGDdsXbpuX3ZDIC-319" style="edgeStyle=orthogonalEdgeStyle;rounded=0;orthogonalLoop=1;jettySize=auto;html=1;exitX=1;exitY=0;exitDx=0;exitDy=0;entryX=0.55;entryY=0.95;entryDx=0;entryDy=0;entryPerimeter=0;strokeWidth=3;" edge="1" parent="1" source="E9qOfvGDdsXbpuX3ZDIC-187" target="E9qOfvGDdsXbpuX3ZDIC-305">
          <mxGeometry relative="1" as="geometry">
            <Array as="points">
              <mxPoint x="1000" y="3150" />
              <mxPoint x="2437" y="3150" />
            </Array>
          </mxGeometry>
        </mxCell>
        <mxCell id="E9qOfvGDdsXbpuX3ZDIC-320" style="edgeStyle=orthogonalEdgeStyle;rounded=0;orthogonalLoop=1;jettySize=auto;html=1;exitX=1;exitY=0;exitDx=0;exitDy=0;entryX=0.514;entryY=0.958;entryDx=0;entryDy=0;entryPerimeter=0;strokeWidth=3;" edge="1" parent="1" source="E9qOfvGDdsXbpuX3ZDIC-183" target="E9qOfvGDdsXbpuX3ZDIC-305">
          <mxGeometry relative="1" as="geometry">
            <Array as="points">
              <mxPoint x="1050" y="1355" />
              <mxPoint x="1050" y="2990" />
              <mxPoint x="2400" y="2990" />
            </Array>
          </mxGeometry>
        </mxCell>
        <mxCell id="E9qOfvGDdsXbpuX3ZDIC-322" style="edgeStyle=orthogonalEdgeStyle;rounded=0;orthogonalLoop=1;jettySize=auto;html=1;exitX=1;exitY=0.25;exitDx=0;exitDy=0;entryX=0.143;entryY=0.585;entryDx=0;entryDy=0;entryPerimeter=0;strokeWidth=3;" edge="1" parent="1" source="E9qOfvGDdsXbpuX3ZDIC-179" target="E9qOfvGDdsXbpuX3ZDIC-305">
          <mxGeometry relative="1" as="geometry">
            <Array as="points">
              <mxPoint x="1090" y="942" />
              <mxPoint x="1090" y="2660" />
              <mxPoint x="2010" y="2660" />
            </Array>
          </mxGeometry>
        </mxCell>
        <mxCell id="E9qOfvGDdsXbpuX3ZDIC-323" style="edgeStyle=orthogonalEdgeStyle;rounded=0;orthogonalLoop=1;jettySize=auto;html=1;exitX=0.88;exitY=0.25;exitDx=0;exitDy=0;exitPerimeter=0;entryX=0.4;entryY=0.1;entryDx=0;entryDy=0;entryPerimeter=0;dashed=1;strokeWidth=3;fillColor=#fa6800;strokeColor=#C73500;" edge="1" parent="1" source="E9qOfvGDdsXbpuX3ZDIC-80" target="E9qOfvGDdsXbpuX3ZDIC-65">
          <mxGeometry relative="1" as="geometry">
            <Array as="points">
              <mxPoint x="2704" y="-1500" />
              <mxPoint x="334" y="-1500" />
            </Array>
          </mxGeometry>
        </mxCell>
        <mxCell id="E9qOfvGDdsXbpuX3ZDIC-324" style="edgeStyle=orthogonalEdgeStyle;rounded=0;orthogonalLoop=1;jettySize=auto;html=1;exitX=0.8;exitY=0.8;exitDx=0;exitDy=0;exitPerimeter=0;entryX=0.55;entryY=0.95;entryDx=0;entryDy=0;entryPerimeter=0;dashed=1;strokeWidth=3;fillColor=#fa6800;strokeColor=#C73500;" edge="1" parent="1" source="E9qOfvGDdsXbpuX3ZDIC-305" target="E9qOfvGDdsXbpuX3ZDIC-27">
          <mxGeometry relative="1" as="geometry">
            <Array as="points">
              <mxPoint x="2700" y="3560" />
              <mxPoint x="428" y="3560" />
            </Array>
          </mxGeometry>
        </mxCell>
        <mxCell id="E9qOfvGDdsXbpuX3ZDIC-325" style="edgeStyle=orthogonalEdgeStyle;rounded=0;orthogonalLoop=1;jettySize=auto;html=1;exitX=0.96;exitY=0.7;exitDx=0;exitDy=0;exitPerimeter=0;entryX=0.13;entryY=0.77;entryDx=0;entryDy=0;entryPerimeter=0;dashed=1;strokeWidth=3;fillColor=#fa6800;strokeColor=#C73500;" edge="1" parent="1" source="E9qOfvGDdsXbpuX3ZDIC-305" target="E9qOfvGDdsXbpuX3ZDIC-22">
          <mxGeometry relative="1" as="geometry">
            <Array as="points">
              <mxPoint x="2868" y="3720" />
              <mxPoint x="247" y="3720" />
            </Array>
          </mxGeometry>
        </mxCell>
        <mxCell id="E9qOfvGDdsXbpuX3ZDIC-327" style="edgeStyle=orthogonalEdgeStyle;rounded=0;orthogonalLoop=1;jettySize=auto;html=1;exitX=0.875;exitY=0.5;exitDx=0;exitDy=0;exitPerimeter=0;entryX=0.13;entryY=0.77;entryDx=0;entryDy=0;entryPerimeter=0;dashed=1;strokeWidth=3;fillColor=#fa6800;strokeColor=#C73500;" edge="1" parent="1" source="E9qOfvGDdsXbpuX3ZDIC-80" target="E9qOfvGDdsXbpuX3ZDIC-1">
          <mxGeometry relative="1" as="geometry">
            <Array as="points">
              <mxPoint x="2699" y="-1800" />
              <mxPoint x="227" y="-1800" />
            </Array>
          </mxGeometry>
        </mxCell>
      </root>
    </mxGraphModel>
  </diagram>
</mxfile>
